<svg xmlns="http://www.w3.org/2000/svg" xmlns:xlink="http://www.w3.org/1999/xlink" viewBox="0 0 445.08 445.05"><defs><style>.cls-1{isolation:isolate;}.cls-10,.cls-11,.cls-12,.cls-13,.cls-14,.cls-15,.cls-16,.cls-17,.cls-18,.cls-19,.cls-2,.cls-20,.cls-21,.cls-22,.cls-23,.cls-24,.cls-25,.cls-26,.cls-27,.cls-28,.cls-29,.cls-3,.cls-30,.cls-31,.cls-32,.cls-33,.cls-34,.cls-35,.cls-36,.cls-37,.cls-38,.cls-39,.cls-4,.cls-40,.cls-42,.cls-43,.cls-44,.cls-45,.cls-46,.cls-47,.cls-48,.cls-49,.cls-5,.cls-50,.cls-51,.cls-52,.cls-53,.cls-54,.cls-55,.cls-56,.cls-57,.cls-58,.cls-59,.cls-6,.cls-60,.cls-61,.cls-62,.cls-63,.cls-64,.cls-65,.cls-66,.cls-67,.cls-68,.cls-69,.cls-7,.cls-70,.cls-71,.cls-72,.cls-73,.cls-74,.cls-75,.cls-76,.cls-77,.cls-78,.cls-79,.cls-8,.cls-81,.cls-82,.cls-83,.cls-84,.cls-85,.cls-86,.cls-88,.cls-89,.cls-9,.cls-90,.cls-91,.cls-92,.cls-93,.cls-95,.cls-96{fill-rule:evenodd;}.cls-2{fill:url(#Безымянный_градиент_25);}.cls-3{fill:url(#Безымянный_градиент_102);}.cls-4{fill:url(#Безымянный_градиент_107);}.cls-5{fill:url(#Безымянный_градиент_38);}.cls-6{fill:url(#Безымянный_градиент_14);}.cls-7{fill:url(#Безымянный_градиент_25-2);}.cls-8{fill:url(#Безымянный_градиент_38-2);}.cls-9{fill:url(#Безымянный_градиент_25-3);}.cls-10{fill:url(#Безымянный_градиент_25-4);}.cls-11{fill:url(#Безымянный_градиент_25-5);}.cls-12{fill:url(#Безымянный_градиент_25-6);}.cls-13{fill:url(#Безымянный_градиент_25-7);}.cls-14{fill:url(#Безымянный_градиент_108);}.cls-15{fill:url(#Безымянный_градиент_25-8);}.cls-16{fill:url(#Безымянный_градиент_25-9);}.cls-17{fill:url(#Безымянный_градиент_25-10);}.cls-18{fill:url(#Безымянный_градиент_25-11);}.cls-19{fill:url(#Безымянный_градиент_25-12);}.cls-20{fill:url(#Безымянный_градиент_46);}.cls-21{fill:url(#Безымянный_градиент_43);}.cls-22{fill:url(#Безымянный_градиент_14-2);}.cls-23{fill:url(#Безымянный_градиент_55);}.cls-24{fill:url(#Безымянный_градиент_38-3);}.cls-25{fill:url(#Безымянный_градиент_25-13);}.cls-26{fill:url(#Безымянный_градиент_38-4);}.cls-27{fill:url(#Безымянный_градиент_25-14);}.cls-28{fill:url(#Безымянный_градиент_25-15);}.cls-29{fill:url(#Безымянный_градиент_43-2);}.cls-30{fill:url(#Безымянный_градиент_43-3);}.cls-31{fill:url(#Безымянный_градиент_2);}.cls-32{fill:url(#Безымянный_градиент_38-5);}.cls-33{fill:url(#Безымянный_градиент_38-6);}.cls-34{fill:url(#Безымянный_градиент_25-16);}.cls-35{fill:url(#Безымянный_градиент_55-2);}.cls-36{fill:url(#Безымянный_градиент_25-17);}.cls-37{fill:url(#Безымянный_градиент_46-2);}.cls-38{fill:url(#Безымянный_градиент_43-4);}.cls-39{fill:url(#Безымянный_градиент_2-2);}.cls-40{fill:url(#Безымянный_градиент_133);}.cls-41{fill:url(#Безымянный_градиент_134);}.cls-42{fill:url(#Безымянный_градиент_134-2);}.cls-43{fill:url(#Безымянный_градиент_38-7);}.cls-44{fill:url(#Безымянный_градиент_25-18);}.cls-45{fill:url(#Безымянный_градиент_55-3);}.cls-46{fill:url(#Безымянный_градиент_43-5);}.cls-47{fill:url(#Безымянный_градиент_46-3);}.cls-48{fill:url(#Безымянный_градиент_43-6);}.cls-49{fill:url(#Безымянный_градиент_134-3);}.cls-50{fill:url(#Безымянный_градиент_133-2);}.cls-51{fill:url(#Безымянный_градиент_25-19);}.cls-52{fill:url(#Безымянный_градиент_55-4);}.cls-53{fill:url(#Безымянный_градиент_25-20);}.cls-54{fill:url(#Безымянный_градиент_25-21);}.cls-55{fill:url(#Безымянный_градиент_25-22);}.cls-56{fill:url(#Безымянный_градиент_5);}.cls-57{fill:url(#Безымянный_градиент_43-7);}.cls-58{fill:url(#Безымянный_градиент_52);}.cls-59{fill:url(#Безымянный_градиент_132);}.cls-60{fill:url(#Безымянный_градиент_88);}.cls-61{fill:url(#Безымянный_градиент_94);}.cls-62{fill:url(#Безымянный_градиент_55-5);}.cls-63{fill:url(#Безымянный_градиент_25-23);}.cls-64{fill:url(#Безымянный_градиент_25-24);}.cls-65{fill:url(#Безымянный_градиент_9);}.cls-66{fill:url(#Безымянный_градиент_5-2);}.cls-67{fill:url(#Безымянный_градиент_5-3);}.cls-68{fill:url(#Безымянный_градиент_52-2);}.cls-69{fill:url(#Безымянный_градиент_130);}.cls-70{fill:url(#Безымянный_градиент_5-4);}.cls-71{fill:url(#Безымянный_градиент_25-25);}.cls-72{fill:url(#Безымянный_градиент_25-26);}.cls-73{fill:url(#Безымянный_градиент_25-27);}.cls-74{fill:url(#Безымянный_градиент_9-2);}.cls-75{fill:url(#Безымянный_градиент_9-3);}.cls-76{fill:url(#Безымянный_градиент_55-6);}.cls-77{fill:url(#Безымянный_градиент_9-4);}.cls-78{fill:url(#Безымянный_градиент_25-28);}.cls-79{fill:url(#Безымянный_градиент_89);}.cls-80{fill:url(#Безымянный_градиент_115);}.cls-81{fill:url(#Безымянный_градиент_23);}.cls-82{fill:url(#Безымянный_градиент_23-2);}.cls-83{fill:url(#Безымянный_градиент_23-3);}.cls-84{fill:url(#Безымянный_градиент_23-4);}.cls-85{fill:url(#Безымянный_градиент_27);}.cls-86{fill:url(#Безымянный_градиент_23-5);}.cls-87{opacity:0.5;}.cls-87,.cls-90{mix-blend-mode:soft-light;}.cls-88{fill:#ead3ff;}.cls-89{fill:#fff;}.cls-90{fill:#d16bff;}.cls-91{fill:#d29ccd;opacity:0.4;}.cls-91,.cls-92{mix-blend-mode:multiply;}.cls-92{fill:#aa66ac;opacity:0.3;}.cls-93{fill:#7c669a;}.cls-94{mix-blend-mode:screen;fill:url(#Безымянный_градиент_81);}.cls-95{fill:#544379;}.cls-96{fill:#614379;}</style><radialGradient id="Безымянный_градиент_25" cx="523.33" cy="133.79" r="449.54" gradientUnits="userSpaceOnUse"><stop offset="0" stop-color="#efdbe5"/><stop offset="0.84" stop-color="#8e7f9d"/><stop offset="1" stop-color="#6d61d8"/></radialGradient><radialGradient id="Безымянный_градиент_102" cx="523.19" cy="133.79" r="449.32" gradientUnits="userSpaceOnUse"><stop offset="0.34" stop-color="#f3e5ec"/><stop offset="0.84" stop-color="#8e7f9d"/><stop offset="1" stop-color="#6d61d8"/></radialGradient><radialGradient id="Безымянный_градиент_107" cx="523.19" cy="133.79" r="449.32" gradientUnits="userSpaceOnUse"><stop offset="0" stop-color="#f3e5ec"/><stop offset="0.57" stop-color="#8e7f9d"/><stop offset="1" stop-color="#6d61d8"/></radialGradient><radialGradient id="Безымянный_градиент_38" cx="523.19" cy="133.79" r="449.33" gradientUnits="userSpaceOnUse"><stop offset="0" stop-color="#fff"/><stop offset="0.15" stop-color="#fcfbfc"/><stop offset="0.3" stop-color="#f1eff3"/><stop offset="0.44" stop-color="#e0dce4"/><stop offset="0.59" stop-color="#c8c1cf"/><stop offset="0.73" stop-color="#a99eb5"/><stop offset="0.84" stop-color="#8e7f9d"/><stop offset="1" stop-color="#6d61d8"/></radialGradient><radialGradient id="Безымянный_градиент_14" cx="523.19" cy="133.79" r="449.33" gradientUnits="userSpaceOnUse"><stop offset="0" stop-color="#efdbe5"/><stop offset="0.84" stop-color="#ada2b7"/><stop offset="1" stop-color="#6d61d8"/></radialGradient><radialGradient id="Безымянный_градиент_25-2" cx="523.19" cy="133.79" r="449.32" xlink:href="#Безымянный_градиент_25"/><radialGradient id="Безымянный_градиент_38-2" cx="523.19" cy="133.79" r="449.32" xlink:href="#Безымянный_градиент_38"/><radialGradient id="Безымянный_градиент_25-3" cx="523.19" cy="133.79" r="449.33" xlink:href="#Безымянный_градиент_25"/><radialGradient id="Безымянный_градиент_25-4" cx="523.19" cy="133.79" r="449.32" xlink:href="#Безымянный_градиент_25"/><radialGradient id="Безымянный_градиент_25-5" cx="523.23" cy="133.79" r="449.4" xlink:href="#Безымянный_градиент_25"/><radialGradient id="Безымянный_градиент_25-6" cx="523.19" cy="133.79" r="449.33" xlink:href="#Безымянный_градиент_25"/><radialGradient id="Безымянный_градиент_25-7" cx="523.19" cy="133.79" r="449.33" xlink:href="#Безымянный_градиент_25"/><radialGradient id="Безымянный_градиент_108" cx="523.19" cy="133.79" r="449.33" gradientUnits="userSpaceOnUse"><stop offset="0" stop-color="#efdbe5"/><stop offset="0.61" stop-color="#8e7f9d"/><stop offset="1" stop-color="#6d61d8"/></radialGradient><radialGradient id="Безымянный_градиент_25-8" cx="523.13" cy="133.76" r="449.09" xlink:href="#Безымянный_градиент_25"/><radialGradient id="Безымянный_градиент_25-9" cx="523.19" cy="133.79" r="449.33" xlink:href="#Безымянный_градиент_25"/><radialGradient id="Безымянный_градиент_25-10" cx="523.19" cy="133.79" r="449.33" xlink:href="#Безымянный_градиент_25"/><radialGradient id="Безымянный_градиент_25-11" cx="523.2" cy="133.76" r="449.11" xlink:href="#Безымянный_градиент_25"/><radialGradient id="Безымянный_градиент_25-12" cx="523.2" cy="133.79" r="449.33" xlink:href="#Безымянный_градиент_25"/><radialGradient id="Безымянный_градиент_46" cx="523.19" cy="133.79" r="449.33" gradientUnits="userSpaceOnUse"><stop offset="0" stop-color="#efdbe5"/><stop offset="0.7" stop-color="#8e7fd8"/><stop offset="1" stop-color="#6d3ed8"/></radialGradient><radialGradient id="Безымянный_градиент_43" cx="523.19" cy="133.79" r="449.33" gradientUnits="userSpaceOnUse"><stop offset="0" stop-color="#f3e5ec"/><stop offset="0.14" stop-color="#ecdee7"/><stop offset="0.33" stop-color="#d9cbd8"/><stop offset="0.57" stop-color="#baabbf"/><stop offset="0.83" stop-color="#8f809d"/><stop offset="0.84" stop-color="#8e7f9d"/><stop offset="1" stop-color="#6d61d8"/></radialGradient><radialGradient id="Безымянный_градиент_14-2" cx="523.19" cy="133.79" r="449.33" xlink:href="#Безымянный_градиент_14"/><radialGradient id="Безымянный_градиент_55" cx="523.19" cy="133.79" r="449.33" gradientUnits="userSpaceOnUse"><stop offset="0" stop-color="#ccbbe0"/><stop offset="0.84" stop-color="#827192"/><stop offset="1" stop-color="#6d61d8"/></radialGradient><radialGradient id="Безымянный_градиент_38-3" cx="523.19" cy="133.79" r="449.33" xlink:href="#Безымянный_градиент_38"/><radialGradient id="Безымянный_градиент_25-13" cx="523.19" cy="133.79" r="449.33" xlink:href="#Безымянный_градиент_25"/><radialGradient id="Безымянный_градиент_38-4" cx="523.19" cy="133.79" r="449.32" xlink:href="#Безымянный_градиент_38"/><radialGradient id="Безымянный_градиент_25-14" cx="523.19" cy="133.79" r="449.33" xlink:href="#Безымянный_градиент_25"/><radialGradient id="Безымянный_градиент_25-15" cx="523.19" cy="133.79" r="449.33" xlink:href="#Безымянный_градиент_25"/><radialGradient id="Безымянный_градиент_43-2" cx="523.19" cy="133.79" r="449.32" xlink:href="#Безымянный_градиент_43"/><radialGradient id="Безымянный_градиент_43-3" cx="523.19" cy="133.79" r="449.32" xlink:href="#Безымянный_градиент_43"/><radialGradient id="Безымянный_градиент_2" cx="523.19" cy="133.79" r="449.33" gradientUnits="userSpaceOnUse"><stop offset="0" stop-color="#9c63b0"/><stop offset="0.84" stop-color="#7a6094"/><stop offset="1" stop-color="#4b3ccf"/></radialGradient><radialGradient id="Безымянный_градиент_38-5" cx="523.19" cy="133.79" r="449.32" xlink:href="#Безымянный_градиент_38"/><radialGradient id="Безымянный_градиент_38-6" cx="523.19" cy="133.79" r="449.33" xlink:href="#Безымянный_градиент_38"/><radialGradient id="Безымянный_градиент_25-16" cx="523.19" cy="133.79" r="449.32" xlink:href="#Безымянный_градиент_25"/><radialGradient id="Безымянный_градиент_55-2" cx="523.19" cy="133.79" r="449.33" xlink:href="#Безымянный_градиент_55"/><radialGradient id="Безымянный_градиент_25-17" cx="523.19" cy="133.79" r="449.33" xlink:href="#Безымянный_градиент_25"/><radialGradient id="Безымянный_градиент_46-2" cx="523.19" cy="133.79" r="449.32" xlink:href="#Безымянный_градиент_46"/><radialGradient id="Безымянный_градиент_43-4" cx="523.19" cy="133.79" r="449.33" xlink:href="#Безымянный_градиент_43"/><radialGradient id="Безымянный_градиент_2-2" cx="523.19" cy="133.79" r="449.33" xlink:href="#Безымянный_градиент_2"/><radialGradient id="Безымянный_градиент_133" cx="523.19" cy="133.79" r="449.33" gradientUnits="userSpaceOnUse"><stop offset="0" stop-color="#593f81"/><stop offset="0.84" stop-color="#70548c"/><stop offset="1" stop-color="#3f30c7"/></radialGradient><radialGradient id="Безымянный_градиент_134" cx="523.19" cy="133.79" r="449.33" gradientTransform="translate(178.38 -172.73) rotate(29.02)" gradientUnits="userSpaceOnUse"><stop offset="0" stop-color="#593f81"/><stop offset="0.84" stop-color="#452962"/><stop offset="1" stop-color="#3f30c7"/></radialGradient><radialGradient id="Безымянный_градиент_134-2" cx="523.19" cy="133.79" r="449.33" gradientTransform="matrix(1, 0, 0, 1, 0, 0)" xlink:href="#Безымянный_градиент_134"/><radialGradient id="Безымянный_градиент_38-7" cx="523.19" cy="133.79" r="449.33" xlink:href="#Безымянный_градиент_38"/><radialGradient id="Безымянный_градиент_25-18" cx="523.19" cy="133.79" r="449.33" xlink:href="#Безымянный_градиент_25"/><radialGradient id="Безымянный_градиент_55-3" cx="523.19" cy="133.79" r="449.33" xlink:href="#Безымянный_градиент_55"/><radialGradient id="Безымянный_градиент_43-5" cx="523.19" cy="133.79" r="449.33" xlink:href="#Безымянный_градиент_43"/><radialGradient id="Безымянный_градиент_46-3" cx="523.19" cy="133.79" r="449.33" xlink:href="#Безымянный_градиент_46"/><radialGradient id="Безымянный_градиент_43-6" cx="523.19" cy="133.79" r="449.33" xlink:href="#Безымянный_градиент_43"/><radialGradient id="Безымянный_градиент_134-3" cx="523.19" cy="133.79" r="449.33" gradientTransform="matrix(1, 0, 0, 1, 0, 0)" xlink:href="#Безымянный_градиент_134"/><radialGradient id="Безымянный_градиент_133-2" cx="523.19" cy="133.79" r="449.32" xlink:href="#Безымянный_градиент_133"/><radialGradient id="Безымянный_градиент_25-19" cx="523.19" cy="133.79" r="449.32" xlink:href="#Безымянный_градиент_25"/><radialGradient id="Безымянный_градиент_55-4" cx="523.19" cy="133.79" r="449.33" xlink:href="#Безымянный_градиент_55"/><radialGradient id="Безымянный_градиент_25-20" cx="523.19" cy="133.79" r="449.32" xlink:href="#Безымянный_градиент_25"/><radialGradient id="Безымянный_градиент_25-21" cx="523.19" cy="133.79" r="449.33" xlink:href="#Безымянный_градиент_25"/><radialGradient id="Безымянный_градиент_25-22" cx="523.2" cy="133.79" r="449.33" xlink:href="#Безымянный_градиент_25"/><radialGradient id="Безымянный_градиент_5" cx="523.19" cy="133.79" r="449.32" gradientUnits="userSpaceOnUse"><stop offset="0" stop-color="#ccbbe0"/><stop offset="0.84" stop-color="#b9b0c3"/><stop offset="1" stop-color="#6d61d8"/></radialGradient><radialGradient id="Безымянный_градиент_43-7" cx="523.19" cy="133.79" r="449.32" xlink:href="#Безымянный_градиент_43"/><radialGradient id="Безымянный_градиент_52" cx="523.19" cy="133.79" r="449.33" gradientUnits="userSpaceOnUse"><stop offset="0" stop-color="#efdbe5"/><stop offset="0.84" stop-color="#d4c0dc"/><stop offset="1" stop-color="#6d61d8"/></radialGradient><radialGradient id="Безымянный_градиент_132" cx="523.19" cy="133.79" r="449.33" gradientUnits="userSpaceOnUse"><stop offset="0" stop-color="#de9dbd"/><stop offset="0.84" stop-color="#442760"/><stop offset="1" stop-color="#3f30c7"/></radialGradient><radialGradient id="Безымянный_градиент_88" cx="523.19" cy="133.79" r="449.32" gradientUnits="userSpaceOnUse"><stop offset="0" stop-color="#ac86b9"/><stop offset="0.84" stop-color="#67527a"/><stop offset="1" stop-color="#6d61d8"/></radialGradient><radialGradient id="Безымянный_градиент_94" cx="523.19" cy="133.79" r="449.33" gradientUnits="userSpaceOnUse"><stop offset="0" stop-color="#ac86b9"/><stop offset="0.84" stop-color="#90819e"/><stop offset="1" stop-color="#6d61d8"/></radialGradient><radialGradient id="Безымянный_градиент_55-5" cx="523.19" cy="133.79" r="449.33" xlink:href="#Безымянный_градиент_55"/><radialGradient id="Безымянный_градиент_25-23" cx="523.19" cy="133.79" r="449.33" xlink:href="#Безымянный_градиент_25"/><radialGradient id="Безымянный_градиент_25-24" cx="523.33" cy="133.85" r="449.4" xlink:href="#Безымянный_градиент_25"/><radialGradient id="Безымянный_градиент_9" cx="523.19" cy="133.79" r="449.32" gradientUnits="userSpaceOnUse"><stop offset="0" stop-color="#efdbe5"/><stop offset="0.31" stop-color="#8e7f9d"/><stop offset="1" stop-color="#fafafe"/></radialGradient><radialGradient id="Безымянный_градиент_5-2" cx="523.19" cy="133.79" r="449.33" xlink:href="#Безымянный_градиент_5"/><radialGradient id="Безымянный_градиент_5-3" cx="523.19" cy="133.79" r="449.33" xlink:href="#Безымянный_градиент_5"/><radialGradient id="Безымянный_градиент_52-2" cx="523.19" cy="133.79" r="449.32" xlink:href="#Безымянный_градиент_52"/><radialGradient id="Безымянный_градиент_130" cx="523.19" cy="133.79" r="449.32" gradientUnits="userSpaceOnUse"><stop offset="0" stop-color="#9357a8"/><stop offset="0.84" stop-color="#5f427a"/><stop offset="1" stop-color="#3f30c7"/></radialGradient><radialGradient id="Безымянный_градиент_5-4" cx="523.19" cy="133.79" r="449.33" xlink:href="#Безымянный_градиент_5"/><radialGradient id="Безымянный_градиент_25-25" cx="523.19" cy="133.79" r="449.33" xlink:href="#Безымянный_градиент_25"/><radialGradient id="Безымянный_градиент_25-26" cx="523.19" cy="133.89" r="449.16" xlink:href="#Безымянный_градиент_25"/><radialGradient id="Безымянный_градиент_25-27" cx="523.23" cy="133.94" r="449.21" xlink:href="#Безымянный_градиент_25"/><radialGradient id="Безымянный_градиент_9-2" cx="523.19" cy="133.79" r="449.32" xlink:href="#Безымянный_градиент_9"/><radialGradient id="Безымянный_градиент_9-3" cx="523.19" cy="133.79" r="449.33" xlink:href="#Безымянный_градиент_9"/><radialGradient id="Безымянный_градиент_55-6" cx="523.19" cy="133.79" r="449.33" xlink:href="#Безымянный_градиент_55"/><radialGradient id="Безымянный_градиент_9-4" cx="523.19" cy="133.79" r="449.33" xlink:href="#Безымянный_градиент_9"/><radialGradient id="Безымянный_градиент_25-28" cx="523.19" cy="133.79" r="449.32" xlink:href="#Безымянный_градиент_25"/><radialGradient id="Безымянный_градиент_89" cx="460.57" cy="293.59" r="347.25" gradientUnits="userSpaceOnUse"><stop offset="0" stop-color="#efdbe5"/><stop offset="0.11" stop-color="#ecd8e2"/><stop offset="0.18" stop-color="#e4d0da"/><stop offset="0.24" stop-color="#d5c1cb"/><stop offset="0.3" stop-color="#c0acb6"/><stop offset="0.35" stop-color="#a4919a"/><stop offset="0.4" stop-color="#84707a"/><stop offset="0.42" stop-color="#725f68"/><stop offset="1" stop-color="#fbfbfd"/></radialGradient><radialGradient id="Безымянный_градиент_115" cx="460.53" cy="293.53" r="347.4" gradientUnits="userSpaceOnUse"><stop offset="0" stop-color="#ac86b9"/><stop offset="0.58" stop-color="#7a688b"/><stop offset="0.79" stop-color="#e1dff7"/></radialGradient><radialGradient id="Безымянный_градиент_23" cx="462.58" cy="293.54" r="104.8" gradientUnits="userSpaceOnUse"><stop offset="0" stop-color="#fcf9fb"/><stop offset="1" stop-color="#8e7f9d"/></radialGradient><radialGradient id="Безымянный_градиент_23-2" cx="442.49" cy="358.4" r="106.84" xlink:href="#Безымянный_градиент_23"/><radialGradient id="Безымянный_градиент_23-3" cx="319.47" cy="230.91" r="92.46" xlink:href="#Безымянный_градиент_23"/><radialGradient id="Безымянный_градиент_23-4" cx="524.83" cy="230.36" r="92.42" xlink:href="#Безымянный_градиент_23"/><radialGradient id="Безымянный_градиент_27" cx="422.85" cy="150.97" r="72.97" gradientUnits="userSpaceOnUse"><stop offset="0" stop-color="#fcf9fb"/><stop offset="1" stop-color="#d5cfda"/></radialGradient><radialGradient id="Безымянный_градиент_23-5" cx="421.32" cy="453.48" r="87.28" xlink:href="#Безымянный_градиент_23"/><radialGradient id="Безымянный_градиент_81" cx="493.9" cy="182.06" r="89.3" gradientTransform="translate(559.21 -340.26) rotate(76.89)" gradientUnits="userSpaceOnUse"><stop offset="0" stop-color="#edc0e4"/><stop offset="1"/></radialGradient></defs><title>ball</title><g class="cls-1"><g id="objects"><path class="cls-2" d="M238.62,134.43a3.08,3.08,0,0,0-.16.38l-.16.09C238.39,134.74,238.51,134.6,238.62,134.43Z" transform="translate(-200.31 -35.71)"/><path class="cls-3" d="M299.43,73.83c-8.55,14.12-12.55,22.62-19.66,41.32-18.7,7.1-27.2,11.11-41.31,19.66a3.08,3.08,0,0,1,.16-.38A222,222,0,0,1,299.06,74,2.48,2.48,0,0,1,299.43,73.83Z" transform="translate(-200.31 -35.71)"/><path class="cls-4" d="M330.85,99.56c-23,3.31-32.37,8.48-51.07,15.59,7.11-18.7,11.09-27.2,19.66-41.31,17.48-6.94,26.24-11,46.2-13.63C339.23,72.42,336.15,80.39,330.85,99.56Z" transform="translate(-200.31 -35.71)"/><path class="cls-5" d="M391.15,94c-25,1.12-37.32,2.22-60.3,5.54,5.3-19.17,8.38-27.14,14.79-39.35a466.37,466.37,0,0,1,51-4.34C394.3,67.39,393.16,75.13,391.15,94Z" transform="translate(-200.31 -35.71)"/><path class="cls-6" d="M454.56,94a604.14,604.14,0,0,0-63.41,0c2-18.89,3.15-26.63,5.48-38.15,20.79-.85,31.66-.85,52.44,0C451.41,67.39,452.55,75.13,454.56,94Z" transform="translate(-200.31 -35.71)"/><path class="cls-7" d="M514.86,99.56c-23-3.32-35.25-4.42-60.3-5.54-2-18.89-3.15-26.63-5.49-38.15a466.15,466.15,0,0,1,51,4.34C506.48,72.42,509.56,80.39,514.86,99.56Z" transform="translate(-200.31 -35.71)"/><path class="cls-8" d="M565.93,115.15c-18.71-7.11-28.09-12.28-51.07-15.59-5.3-19.17-8.38-27.14-14.8-39.35,20,2.67,28.73,6.69,46.21,13.63C554.84,88,558.82,96.45,565.93,115.15Z" transform="translate(-200.31 -35.71)"/><path class="cls-9" d="M607.24,134.81c-14.11-8.55-22.61-12.56-41.31-19.66-7.11-18.7-11.09-27.2-19.66-41.32l.33.14s0,0,0,0a222.11,222.11,0,0,1,60.44,60.43l0,0C607.15,134.57,607.19,134.69,607.24,134.81Z" transform="translate(-200.31 -35.71)"/><path class="cls-10" d="M607.4,134.9l-.16-.09c0-.12-.09-.24-.14-.35A3.82,3.82,0,0,1,607.4,134.9Z" transform="translate(-200.31 -35.71)"/><path class="cls-11" d="M299.52,73.67s-.07.12-.09.16a2.48,2.48,0,0,0-.37.17A4.38,4.38,0,0,1,299.52,73.67Z" transform="translate(-200.31 -35.71)"/><path class="cls-12" d="M353.37,47.4a91.09,91.09,0,0,0-7.73,12.81c-20,2.68-28.72,6.68-46.21,13.62,0,0,.07-.11.09-.16A219.59,219.59,0,0,1,353.37,47.4Z" transform="translate(-200.31 -35.71)"/><path class="cls-13" d="M402.18,37.22c-2.12,3.8-3.35,7.78-5.54,18.66a465.93,465.93,0,0,0-51,4.33,91.09,91.09,0,0,1,7.73-12.81A218.81,218.81,0,0,1,402.18,37.22Z" transform="translate(-200.31 -35.71)"/><path class="cls-14" d="M449.08,55.88c-20.79-.86-31.67-.86-52.44,0C398.83,45,400.06,41,402.18,37.22c.16-.23.28-.46.42-.69,8.06-.17,14.16-.26,20.26-.26s12.2.09,20.26.26l.21.34a2.5,2.5,0,0,0,.21.35c.42.77.82,1.56,1.19,2.43.12.25.23.56.35.83l.35.91a50.74,50.74,0,0,1,1.7,5.71c.12.46.23.95.35,1.47a2,2,0,0,1,.09.35c.23.9.44,1.9.68,3,0,.07,0,.14,0,.21C448.55,53.25,448.81,54.5,449.08,55.88Z" transform="translate(-200.31 -35.71)"/><path class="cls-15" d="M443.33,36.87a2.5,2.5,0,0,0,.21.35h0A2.37,2.37,0,0,1,443.33,36.87Z" transform="translate(-200.31 -35.71)"/><path class="cls-16" d="M500.06,60.21a466,466,0,0,0-51-4.33c-.27-1.35-.53-2.61-.79-3.77,0-.07,0-.14,0-.21-.24-1.08-.47-2.08-.68-3a2,2,0,0,0-.09-.35c-.12-.52-.23-1-.35-1.47a50.74,50.74,0,0,0-1.7-5.71l-.35-.91c-.12-.27-.23-.58-.35-.83-.37-.87-.77-1.66-1.19-2.43A218.72,218.72,0,0,1,492.38,47.4,96.73,96.73,0,0,1,500.06,60.21Z" transform="translate(-200.31 -35.71)"/><path class="cls-17" d="M546.27,73.83C528.78,66.89,520,62.89,500.06,60.21a96.73,96.73,0,0,0-7.68-12.81,219.26,219.26,0,0,1,53.8,26.27S546.25,73.79,546.27,73.83Z" transform="translate(-200.31 -35.71)"/><path class="cls-18" d="M546.6,74l-.33-.14s-.07-.11-.09-.16A3.19,3.19,0,0,1,546.6,74Z" transform="translate(-200.31 -35.71)"/><path class="cls-19" d="M238.46,134.81c-6.94,17.49-11,26.24-13.63,46.2a92.45,92.45,0,0,0-12.8,7.73A219.17,219.17,0,0,1,238.3,134.9Z" transform="translate(-200.31 -35.71)"/><path class="cls-20" d="M264.18,166.22c-19.16,5.3-27.13,8.39-39.34,14.8,2.67-20,6.69-28.72,13.63-46.21,14.1-8.56,22.6-12.55,41.31-19.66C272.67,133.86,267.5,143.24,264.18,166.22Z" transform="translate(-200.31 -35.71)"/><path class="cls-21" d="M319.74,155.12c-24.77,3.62-36.39,5.8-55.56,11.1,3.32-23,8.49-32.36,15.6-51.07,18.7-7.11,28.08-12.28,51.07-15.59C325.55,118.72,323.36,130.34,319.74,155.12Z" transform="translate(-200.31 -35.71)"/><path class="cls-22" d="M386.81,149.3a588.45,588.45,0,0,0-67.07,5.82c3.62-24.78,5.81-36.4,11.11-55.56,23-3.32,35.25-4.42,60.3-5.54C389.14,112.91,388.23,124.26,386.81,149.3Z" transform="translate(-200.31 -35.71)"/><path class="cls-23" d="M458.9,149.3c-23.89-1.17-48.2-1.17-72.09,0,1.42-25,2.33-36.39,4.34-55.28a604.14,604.14,0,0,1,63.41,0C456.57,112.91,457.48,124.26,458.9,149.3Z" transform="translate(-200.31 -35.71)"/><path class="cls-24" d="M526,155.12a588.28,588.28,0,0,0-67.06-5.82c-1.42-25-2.33-36.39-4.34-55.28,25.05,1.12,37.32,2.22,60.3,5.54C520.16,118.72,522.35,130.34,526,155.12Z" transform="translate(-200.31 -35.71)"/><path class="cls-25" d="M581.52,166.22c-19.16-5.3-30.78-7.48-55.56-11.1-3.61-24.78-5.8-36.4-11.1-55.56,23,3.31,32.36,8.48,51.07,15.59C573,133.86,578.21,143.24,581.52,166.22Z" transform="translate(-200.31 -35.71)"/><path class="cls-26" d="M620.87,181c-12.21-6.41-20.18-9.5-39.35-14.8-3.31-23-8.48-32.36-15.59-51.07,18.71,7.11,27.21,11.1,41.31,19.66C614.18,152.3,618.2,161.06,620.87,181Z" transform="translate(-200.31 -35.71)"/><path class="cls-27" d="M633.67,188.72A94.27,94.27,0,0,0,620.86,181c-2.65-20-6.68-28.71-13.62-46.2l.16.09A219,219,0,0,1,633.67,188.72Z" transform="translate(-200.31 -35.71)"/><path class="cls-28" d="M224.83,181a466.36,466.36,0,0,0-4.33,51c-10.87,2.19-14.86,3.43-18.65,5.52A218.4,218.4,0,0,1,212,188.74,92.45,92.45,0,0,1,224.83,181Z" transform="translate(-200.31 -35.71)"/><path class="cls-29" d="M258.65,226.52c-18.89,2-26.63,3.16-38.15,5.49a463.69,463.69,0,0,1,4.34-51c12.21-6.41,20.18-9.5,39.34-14.8C260.87,189.21,259.76,201.48,258.65,226.52Z" transform="translate(-200.31 -35.71)"/><path class="cls-30" d="M313.93,222.18c-25.05,1.42-36.39,2.33-55.28,4.34,1.11-25,2.22-37.31,5.53-60.3,19.17-5.3,30.79-7.48,55.56-11.1A588.26,588.26,0,0,0,313.93,222.18Z" transform="translate(-200.31 -35.71)"/><path class="cls-31" d="M384.53,219.91c-23.52.28-47.11,1-70.6,2.27a588.26,588.26,0,0,1,5.81-67.06,588.45,588.45,0,0,1,67.07-5.82C385.49,172.79,384.82,196.39,384.53,219.91Z" transform="translate(-200.31 -35.71)"/><path class="cls-32" d="M461.17,219.91c-25.57-.28-51.07-.28-76.64,0,.29-23.52,1-47.12,2.28-70.61,23.89-1.17,48.2-1.17,72.09,0C460.22,172.79,460.89,196.39,461.17,219.91Z" transform="translate(-200.31 -35.71)"/><path class="cls-33" d="M531.78,222.18c-23.49-1.32-47.09-2-70.61-2.27-.28-23.52-.95-47.12-2.27-70.61A588.28,588.28,0,0,1,526,155.12,586,586,0,0,1,531.78,222.18Z" transform="translate(-200.31 -35.71)"/><path class="cls-34" d="M587.06,226.52c-18.89-2-30.24-2.92-55.28-4.34A586,586,0,0,0,526,155.12c24.78,3.62,36.4,5.8,55.56,11.1C584.84,189.21,585.94,201.48,587.06,226.52Z" transform="translate(-200.31 -35.71)"/><path class="cls-35" d="M625.21,232c-11.52-2.33-19.26-3.48-38.15-5.49-1.12-25-2.22-37.31-5.54-60.3,19.17,5.3,27.14,8.39,39.35,14.8A463.69,463.69,0,0,1,625.21,232Z" transform="translate(-200.31 -35.71)"/><path class="cls-36" d="M643.83,237.53a35.18,35.18,0,0,0-8.5-3.23c-.42-.12-.89-.24-1.35-.35s-.94-.24-1.45-.35c-2-.49-4.42-1-7.31-1.59a463.84,463.84,0,0,0-4.36-51,94.27,94.27,0,0,1,12.81,7.71v0A217.27,217.27,0,0,1,643.83,237.53Z" transform="translate(-200.31 -35.71)"/><path class="cls-37" d="M220.5,284.44l-2.07-.42c-1.09-.23-2.1-.44-3-.65A73.26,73.26,0,0,1,206,280.8l-.91-.35-.84-.34a23.78,23.78,0,0,1-2.42-1.22l-.68-.39c-.18-8.06-.28-14.16-.28-20.24v-.05c0-6.1.1-12.2.28-20.26a6.92,6.92,0,0,0,.68-.42c3.79-2.09,7.78-3.33,18.65-5.52C219.64,252.79,219.64,263.66,220.5,284.44Z" transform="translate(-200.31 -35.71)"/><path class="cls-38" d="M258.65,289.93c-18.89-2-26.63-3.15-38.15-5.48-.85-20.79-.85-31.65,0-52.44,11.52-2.33,19.26-3.48,38.15-5.49A598.76,598.76,0,0,0,258.65,289.93Z" transform="translate(-200.31 -35.71)"/><path class="cls-39" d="M313.93,294.28c-25.05-1.43-36.39-2.34-55.28-4.35a598.76,598.76,0,0,1,0-63.41c18.89-2,30.23-2.92,55.28-4.34C312.75,246.07,312.75,270.38,313.93,294.28Z" transform="translate(-200.31 -35.71)"/><path class="cls-40" d="M384.53,296.55c-23.52-.29-47.11-1-70.6-2.27-1.18-23.9-1.18-48.21,0-72.1,23.49-1.32,47.08-2,70.6-2.27C384.26,245.48,384.26,271,384.53,296.55Z" transform="translate(-200.31 -35.71)"/><circle class="cls-41" cx="422.85" cy="258.23" r="54.19" transform="translate(-272.49 201.87) rotate(-29.02)"/><path class="cls-42" d="M531.78,294.28c-23.49,1.31-47.09,2-70.61,2.27.28-25.57.28-51.07,0-76.64,23.52.28,47.12,1,70.61,2.27C533,246.07,533,270.38,531.78,294.28Z" transform="translate(-200.31 -35.71)"/><path class="cls-43" d="M587.06,289.93c-18.89,2-30.24,2.92-55.28,4.35,1.18-23.9,1.18-48.21,0-72.1,25,1.42,36.39,2.33,55.28,4.34A598.76,598.76,0,0,1,587.06,289.93Z" transform="translate(-200.31 -35.71)"/><path class="cls-44" d="M625.21,284.45c-11.52,2.33-19.26,3.47-38.15,5.48a598.76,598.76,0,0,0,0-63.41c18.89,2,26.63,3.16,38.15,5.49C626.06,252.8,626.06,263.66,625.21,284.45Z" transform="translate(-200.31 -35.71)"/><path class="cls-45" d="M644.81,258.21v.12c0,6.06-.07,12.13-.26,20.17l-.72.42c-3.1,1.72-6.34,2.84-13.28,4.4l-3.26.7-2.07.42c.84-20.78.84-31.65,0-52.43,2.89.59,5.26,1.1,7.31,1.59L634,234l1.35.35a35.18,35.18,0,0,1,8.5,3.23l.72.42C644.74,246,644.81,252.11,644.81,258.21Z" transform="translate(-200.31 -35.71)"/><path class="cls-46" d="M224.83,335.44a97.05,97.05,0,0,1-12.8-7.69,218.89,218.89,0,0,1-10.18-48.86,23.78,23.78,0,0,0,2.42,1.22l.84.34.91.35a73.26,73.26,0,0,0,9.38,2.57c.93.21,1.94.42,3,.65l2.07.42A466.36,466.36,0,0,0,224.83,335.44Z" transform="translate(-200.31 -35.71)"/><path class="cls-47" d="M264.18,350.23c-19.16-5.3-27.13-8.38-39.34-14.79a463.69,463.69,0,0,1-4.34-51c11.52,2.33,19.26,3.47,38.15,5.48C259.76,315,260.87,327.25,264.18,350.23Z" transform="translate(-200.31 -35.71)"/><path class="cls-48" d="M319.74,361.34c-24.77-3.62-36.39-5.8-55.56-11.11-3.31-23-4.42-35.25-5.53-60.3,18.89,2,30.23,2.92,55.28,4.35A588.26,588.26,0,0,0,319.74,361.34Z" transform="translate(-200.31 -35.71)"/><path class="cls-49" d="M386.81,367.15a588.44,588.44,0,0,1-67.07-5.81,588.26,588.26,0,0,1-5.81-67.06c23.49,1.31,47.08,2,70.6,2.27C384.82,320.07,385.49,343.66,386.81,367.15Z" transform="translate(-200.31 -35.71)"/><path class="cls-50" d="M458.9,367.15c-23.89,1.18-48.2,1.18-72.09,0-1.32-23.49-2-47.08-2.28-70.6,25.57.28,51.07.28,76.64,0C460.89,320.07,460.22,343.66,458.9,367.15Z" transform="translate(-200.31 -35.71)"/><path class="cls-51" d="M526,361.34a588.26,588.26,0,0,1-67.06,5.81c1.32-23.49,2-47.08,2.27-70.6,23.52-.29,47.12-1,70.61-2.27A586,586,0,0,1,526,361.34Z" transform="translate(-200.31 -35.71)"/><path class="cls-52" d="M581.52,350.23c-19.16,5.31-30.78,7.49-55.56,11.11a586,586,0,0,0,5.82-67.06c25-1.43,36.39-2.34,55.28-4.35C585.94,315,584.84,327.25,581.52,350.23Z" transform="translate(-200.31 -35.71)"/><path class="cls-53" d="M620.87,335.44c-12.21,6.41-20.18,9.49-39.35,14.79,3.32-23,4.42-35.25,5.54-60.3,18.89-2,26.63-3.15,38.15-5.48A463.69,463.69,0,0,1,620.87,335.44Z" transform="translate(-200.31 -35.71)"/><path class="cls-54" d="M643.83,278.92a217.5,217.5,0,0,1-10.16,48.83,96.61,96.61,0,0,1-12.81,7.69,463.84,463.84,0,0,0,4.36-51l2.07-.42,3.26-.7C637.49,281.76,640.73,280.64,643.83,278.92Z" transform="translate(-200.31 -35.71)"/><path class="cls-55" d="M238.46,381.65l-.16-.1A218.9,218.9,0,0,1,212,327.75a97.05,97.05,0,0,0,12.8,7.69C227.51,355.4,231.52,364.16,238.46,381.65Z" transform="translate(-200.31 -35.71)"/><path class="cls-56" d="M279.78,401.3c-18.71-7.1-27.21-11.09-41.31-19.65-6.94-17.49-11-26.25-13.63-46.21,12.21,6.41,20.18,9.49,39.34,14.79C267.5,373.22,272.67,382.6,279.78,401.3Z" transform="translate(-200.31 -35.71)"/><path class="cls-57" d="M330.85,416.9c-23-3.32-32.37-8.49-51.07-15.6-7.11-18.7-12.28-28.08-15.6-51.07,19.17,5.31,30.79,7.49,55.56,11.11C323.36,386.11,325.55,397.74,330.85,416.9Z" transform="translate(-200.31 -35.71)"/><path class="cls-58" d="M391.15,422.43c-25-1.11-37.32-2.22-60.3-5.53-5.3-19.16-7.49-30.79-11.11-55.56a588.44,588.44,0,0,0,67.07,5.81C388.23,392.2,389.14,403.55,391.15,422.43Z" transform="translate(-200.31 -35.71)"/><path class="cls-59" d="M454.56,422.43a598.76,598.76,0,0,1-63.41,0c-2-18.88-2.92-30.23-4.34-55.28,23.89,1.18,48.2,1.18,72.09,0C457.48,392.2,456.57,403.55,454.56,422.43Z" transform="translate(-200.31 -35.71)"/><path class="cls-60" d="M514.86,416.9c-23,3.31-35.25,4.42-60.3,5.53,2-18.88,2.92-30.23,4.34-55.28A588.26,588.26,0,0,0,526,361.34C522.35,386.11,520.16,397.74,514.86,416.9Z" transform="translate(-200.31 -35.71)"/><path class="cls-61" d="M565.93,401.3c-18.71,7.11-28.09,12.28-51.07,15.6,5.3-19.16,7.49-30.79,11.1-55.56,24.78-3.62,36.4-5.8,55.56-11.11C578.21,373.22,573,382.6,565.93,401.3Z" transform="translate(-200.31 -35.71)"/><path class="cls-62" d="M607.24,381.65c-14.1,8.56-22.6,12.55-41.31,19.65,7.11-18.7,12.28-28.08,15.59-51.07,19.17-5.3,27.14-8.38,39.35-14.79C618.2,355.4,614.18,364.16,607.24,381.65Z" transform="translate(-200.31 -35.71)"/><path class="cls-63" d="M633.67,327.75a218.9,218.9,0,0,1-26.27,53.8l-.16.1c6.94-17.49,11-26.25,13.62-46.21A96.61,96.61,0,0,0,633.67,327.75Z" transform="translate(-200.31 -35.71)"/><path class="cls-64" d="M238.58,382a4,4,0,0,1-.28-.4l.16.1A1.88,1.88,0,0,1,238.58,382Z" transform="translate(-200.31 -35.71)"/><path class="cls-65" d="M299.43,442.62l-.35-.14,0,0A222,222,0,0,1,238.62,382s0,0,0,0l0,0a1.88,1.88,0,0,0-.12-.3c14.11,8.57,22.61,12.55,41.31,19.65C286.88,420,290.88,428.5,299.43,442.62Z" transform="translate(-200.31 -35.71)"/><path class="cls-66" d="M345.64,456.24c-20-2.66-28.72-6.69-46.2-13.63-8.57-14.1-12.55-22.6-19.66-41.31,18.7,7.11,28.08,12.28,51.07,15.6C336.15,436.06,339.23,444,345.64,456.24Z" transform="translate(-200.31 -35.71)"/><path class="cls-67" d="M396.63,460.59a466.35,466.35,0,0,1-51-4.35c-6.41-12.2-9.49-20.18-14.79-39.34,23,3.31,35.25,4.42,60.3,5.53C393.16,441.32,394.3,449.07,396.63,460.59Z" transform="translate(-200.31 -35.71)"/><path class="cls-68" d="M449.07,460.59c-20.78.85-31.65.85-52.44,0-2.33-11.52-3.47-19.27-5.48-38.16a598.76,598.76,0,0,0,63.41,0C452.55,441.32,451.41,449.07,449.07,460.59Z" transform="translate(-200.31 -35.71)"/><path class="cls-69" d="M500.06,456.24a466.14,466.14,0,0,1-51,4.35c2.34-11.52,3.48-19.27,5.49-38.16,25.05-1.11,37.32-2.22,60.3-5.53C509.56,436.06,506.47,444,500.06,456.24Z" transform="translate(-200.31 -35.71)"/><path class="cls-70" d="M546.27,442.61c-17.49,6.94-26.25,11-46.21,13.63,6.41-12.2,9.5-20.18,14.8-39.34,23-3.32,32.36-8.49,51.07-15.6C558.82,420,554.83,428.51,546.27,442.61Z" transform="translate(-200.31 -35.71)"/><path class="cls-71" d="M607.24,381.65c0,.14-.12.28-.16.39a223.18,223.18,0,0,1-60.41,60.41l-.4.17c8.57-14.12,12.55-22.62,19.66-41.32C584.63,394.2,593.13,390.22,607.24,381.65Z" transform="translate(-200.31 -35.71)"/><path class="cls-72" d="M607.4,381.55a5.14,5.14,0,0,1-.32.49c0-.11.11-.25.16-.39Z" transform="translate(-200.31 -35.71)"/><path class="cls-73" d="M299.52,442.78c-.16-.09-.28-.19-.44-.3l.35.14S299.5,442.73,299.52,442.78Z" transform="translate(-200.31 -35.71)"/><path class="cls-74" d="M353.34,469.05a219.39,219.39,0,0,1-53.82-26.27s-.07-.12-.09-.16c17.49,6.94,26.25,11,46.21,13.62A94.38,94.38,0,0,0,353.34,469.05Z" transform="translate(-200.31 -35.71)"/><path class="cls-75" d="M402.18,479.23a218.81,218.81,0,0,1-48.81-10.18h0a94.38,94.38,0,0,1-7.7-12.81,465.88,465.88,0,0,0,51,4.36c.14.72.28,1.42.42,2.07.25,1.16.49,2.26.7,3.26.72,3.24,1.35,5.66,2,7.64a7.54,7.54,0,0,0,.33.95,7.77,7.77,0,0,0,.32.89c.09.28.21.56.33.84A28.35,28.35,0,0,0,402.18,479.23Z" transform="translate(-200.31 -35.71)"/><path class="cls-76" d="M449.08,460.6c-2.21,10.8-3.42,14.81-5.54,18.6l-.42.73c-8.06.18-14.16.25-20.26.25s-12.2-.07-20.26-.25l-.42-.7a28.35,28.35,0,0,1-1.44-3c-.12-.28-.24-.56-.33-.84a7.77,7.77,0,0,1-.32-.89,9.67,9.67,0,0,1-.33-.95c-.65-2-1.28-4.4-2-7.64-.21-1-.45-2.1-.7-3.26-.14-.65-.28-1.35-.42-2.07C417.41,461.43,428.29,461.43,449.08,460.6Z" transform="translate(-200.31 -35.71)"/><path class="cls-77" d="M500.06,456.24a96.73,96.73,0,0,1-7.68,12.81,217,217,0,0,1-48.84,10.15c2.12-3.79,3.33-7.8,5.54-18.6A465.94,465.94,0,0,0,500.06,456.24Z" transform="translate(-200.31 -35.71)"/><path class="cls-78" d="M546.27,442.62s-.07.11-.09.16a219.26,219.26,0,0,1-53.8,26.27,96.73,96.73,0,0,0,7.68-12.81C520,453.59,528.78,449.56,546.27,442.62Z" transform="translate(-200.31 -35.71)"/><path class="cls-79" d="M546.67,442.45c-.17.12-.33.24-.49.33,0,0,.07-.12.09-.16Z" transform="translate(-200.31 -35.71)"/><path class="cls-80" d="M645.13,237.94v-.32l-.75-.44a218.21,218.21,0,0,0-9.61-46.91l0,0-.54-1.67v-.2l-.1-.07a220.05,220.05,0,0,0-26.27-53.79h0c-.08-.12-.16-.24-.32-.45l-.72-1A221.45,221.45,0,0,0,547,73.52l-.13-.13h-.07l-.28-.2h0a219.75,219.75,0,0,0-53.76-26.28h0l-.18-.06-.06,0-1.69-.56,0,0a219.82,219.82,0,0,0-46.94-9.62l-.06-.1-.38-.63h-.32c-15.19-.3-25.35-.3-40.54,0h-.32l-.32.53c0,.06-.08.13-.12.2a220.09,220.09,0,0,0-46.89,9.61l0,0-1.77.58h0l-.15,0h0A220.06,220.06,0,0,0,299.2,73.19h0a2.71,2.71,0,0,0-.35.24l-.12.08h0a221.64,221.64,0,0,0-60.58,60.58h0l-.1.13-.14.22h0l-.09.13a220.49,220.49,0,0,0-26.28,53.82h0l-.06.17h0l-.58,1.78,0,0a218.81,218.81,0,0,0-9.62,46.87l-.26.17-.44.26v.32c-.2,8.59-.28,14.46-.28,20.32s.08,11.66.28,20.25v.33l.7.41a219.76,219.76,0,0,0,9.63,47l0,0,.56,1.69v.06l.06.17h0a219.62,219.62,0,0,0,25.15,52l-.06,0,1.21,1.79.18.26v.07l.11.11a221.32,221.32,0,0,0,60.22,60.32l.49.36.22.15h0l.13.08A219.72,219.72,0,0,0,353,469.55l.07.08h.17l1.67.55,0,0a219.13,219.13,0,0,0,46.93,9.63l.44.73h.32c7.61.17,13.87.25,20.27.25s12.66-.08,20.28-.25h.32l.44-.75a218.62,218.62,0,0,0,46.93-9.6l0,0,1.69-.56.06,0,.18-.05h0a219.75,219.75,0,0,0,53.76-26.28h0c.17-.1.33-.21.49-.32h0l.06-.05a222.69,222.69,0,0,0,57.76-56.64h0l2.75-3.89c.09-.12.16-.23.23-.34h0l.09-.13a219.89,219.89,0,0,0,26.27-53.76h0l.06-.17s0,0,0-.06l.56-1.69,0,0a218.72,218.72,0,0,0,9.61-46.94l.75-.44v-.32c.18-7.66.26-13.88.26-20.23v-.07C645.39,251.79,645.31,245.73,645.13,237.94Zm-1.16.35c.18,7.62.25,13.6.25,19.92v.12c0,6.2-.07,12.32-.25,19.83l-.42.25c-3.15,1.75-6.46,2.84-13.11,4.34-1,.21-2.11.44-3.27.7l-.33.07-1,.2c.25-6.18.42-11.48.51-16.44v0c0-.75,0-1.48,0-2.22,0-.3,0-.62,0-.92s0-.69,0-1c0-3.23,0-6.39,0-9.62,0-.38,0-.76,0-1.14s0-.54,0-.81c-.08-5.64-.26-11.62-.55-18.79l1,.21.56.11,1.23.26.64.14,1,.22.66.15.78.18.7.16,1.44.35c.46.12.92.23,1.34.35a34.5,34.5,0,0,1,8.37,3.18l0,0ZM619.77,339c-.1.62-.2,1.22-.29,1.82s-.15.91-.23,1.35-.16.92-.24,1.37l-.3,1.59c-.06.35-.13.68-.2,1-.12.59-.24,1.18-.36,1.75-.06.26-.11.51-.17.77-.14.63-.28,1.25-.43,1.87,0,.18-.09.35-.13.53-.16.67-.33,1.33-.5,2l-.09.35c-.19.7-.38,1.4-.57,2.08,0,0,0,.11,0,.16a216.87,216.87,0,0,1-7.72,21.29l-1.71,4.3h0v0l-1.62,1-.77.47-2.08,1.22-.32.19c-1.58.92-3.11,1.79-4.61,2.62l-.4.21-1.86,1-.38.2-1.86,1-.38.19-1.88.95-.37.18-1.94.94-.27.13-2.1,1-.2.09-2.26,1-.08,0c-4.68,2.06-10,4.18-16.44,6.66l.15-.39c.55-1.41,1.08-2.78,1.6-4.1l.21-.53,1.54-3.88c1.48-3.7,2.86-7.18,4.15-10.71.07-.2.15-.4.22-.61l.51-1.45c.1-.27.2-.54.29-.81.16-.47.32-1,.49-1.44.09-.29.19-.57.28-.85l.45-1.42.3-.94c.13-.45.27-.91.4-1.37s.21-.69.31-1.05.27-.94.4-1.41.2-.72.29-1.09.25-1,.37-1.44.2-.77.29-1.17.24-1,.35-1.48.19-.82.29-1.24.22-1,.33-1.55l.27-1.3c.11-.53.21-1.08.31-1.63l.27-1.38c.1-.55.19-1.14.29-1.71s.17-1,.25-1.46.18-1.17.27-1.75.15-.94.22-1.44h.07l3.16-.89.84-.24,2.24-.64,2.09-.62.79-.23,2.75-.84.48-.15,2.12-.68.59-.19,1.87-.62.66-.23,1.67-.58.73-.27,1.51-.55.76-.29c.47-.18,1-.36,1.41-.55l.8-.32,1.31-.53.85-.36,1.22-.52.92-.41,1.15-.51,1-.47,1.06-.49,1.11-.54c.32-.16.65-.31,1-.48l1.27-.62.83-.43,1.53-.78.33-.17q-.11.76-.21,1.5C619.87,338.32,619.82,338.67,619.77,339Zm-59.32,74.62c-.34.81-.67,1.6-1,2.37l-.15.36-.89,2-.23.53c-.27.62-.55,1.22-.82,1.82l-.29.63-.78,1.67c-.1.23-.21.46-.32.68-.25.53-.5,1-.76,1.57-.11.24-.23.49-.35.73l-.79,1.57c-.12.22-.23.44-.34.66-.28.56-.57,1.1-.86,1.65l-.31.59-1.1,2-.1.19c-1.64,3-3.44,6-5.49,9.42h0l-4.3,1.72a217.37,217.37,0,0,1-21.41,7.75h0c-.73.2-1.47.41-2.21.6l-.22.06-2.1.53-.41.1-2,.46-.61.14-1.92.39-.84.17-1.81.33-1.12.2-1.66.28-1.45.23-1.48.22-1.19.17.15-.29.83-1.62.36-.7c.23-.47.47-.94.69-1.4.14-.28.28-.56.41-.84l.6-1.23.43-.94c.18-.37.36-.75.53-1.12s.29-.67.44-1l.48-1.07c.15-.34.29-.69.44-1s.29-.7.44-1l.45-1.09c.13-.34.27-.67.4-1s.3-.76.44-1.14.27-.69.4-1,.28-.76.42-1.15.27-.72.4-1.09l.4-1.17c.14-.39.28-.77.41-1.17l.39-1.16c.14-.43.28-.86.43-1.3l.31-1c1.24-3.88,2.52-8.25,4-13.44v0h0l1.45-.22,1.73-.27,1.48-.25,1.7-.3,1.4-.27,1.6-.3,1.35-.29,1.51-.32,1.28-.29,1.43-.34,1.26-.32,1.35-.34,1.23-.34,1.27-.35,1.24-.37,1.18-.35,1.25-.39,1.09-.35,1.28-.43,1-.34,1.26-.44,1-.36c.41-.14.8-.29,1.2-.44l1-.38,1.44-.55.79-.3,1.57-.61.68-.27,1.84-.72.44-.18,2.33-.92,3.65-1.46.81-.32,4-1.56.41-.16c-1.58,4.16-3,7.83-4.4,11.15ZM413.3,460.54c-4.88-.1-10.1-.27-16.18-.52-.09-.44-.18-.87-.26-1.3,0-.17-.07-.34-.1-.51-.11-.54-.21-1.07-.31-1.59,0-.16-.07-.33-.1-.49l-.3-1.62c0-.13-.05-.27-.08-.4-.1-.55-.2-1.1-.29-1.65,0-.12-.05-.24-.07-.35-.1-.57-.19-1.14-.29-1.71,0-.1,0-.19-.05-.29-1.21-7.24-2.16-14.78-3.47-27.06l1.1,0,3.22.14,1.14,0,3.14.12,1,0,3,.11,1.07,0,2.81.08,1.23,0,2.51.06,1.48,0,2.17,0,1.84,0,1.74,0h7.11l1.74,0,1.83,0,2.17,0,1.49,0,2.51-.06,1.23,0,2.8-.08,1.07,0,3-.11,1,0,3.13-.12,1.14,0,3.23-.14,1.1,0c-1.2,11.15-2.08,18.4-3.14,25.06l0,.08c-.1.64-.2,1.28-.31,1.92l-.06.33c-.09.55-.19,1.1-.28,1.65l-.09.5-.27,1.5c0,.18-.07.35-.1.53-.09.5-.18,1-.28,1.5,0,.18-.07.37-.11.55-.1.51-.19,1-.3,1.55l-.09.46-.27,1.34c-5.76.24-10.75.4-15.41.51C426.29,460.67,420.12,460.68,413.3,460.54Zm-64-4.4-.4-.05L346,455.7l-.66-1.26-.43-.84q-.36-.69-.69-1.38l-.41-.8-.64-1.32-.4-.82-.65-1.38-.33-.7-.69-1.54-.51-1.17-.61-1.44c-.14-.32-.26-.64-.39-1s-.32-.76-.47-1.15l-.42-1.07c-.13-.36-.28-.71-.41-1.08s-.29-.78-.43-1.17l-.39-1.06c-.15-.4-.29-.83-.44-1.24s-.25-.71-.37-1.07-.3-.9-.45-1.35l-.36-1.08c-.16-.48-.31-1-.47-1.48s-.23-.71-.34-1.07c-.17-.52-.33-1.07-.5-1.61-.11-.37-.22-.73-.34-1.11-.17-.58-.35-1.18-.52-1.78-.11-.36-.22-.72-.32-1.09-.2-.67-.4-1.37-.6-2.08-.09-.32-.19-.63-.28-1-.22-.78-.45-1.58-.67-2.4l-.18-.64,2.14.31,1.37.19,2.63.36,1.26.17,2.58.35,1.15.15,2.63.33.94.12,2.66.32.83.1,2.59.29.84.09,2.79.29.58.06,3,.29.39,0c1.1.11,2.21.2,3.32.3h.09c3.46.29,7,.55,10.8.79h.16l3.68.21,1.4.08,2.6.14,2.3.12,1.94.09,2.91.14,1.4.07c.82,7.65,1.5,13.48,2.18,18.53l0,.25c.08.56.15,1.1.23,1.64,0,.18.05.36.08.53q.11.75.21,1.47l.09.63c.08.48.15,1,.23,1.44l.09.58c.07.48.15,1,.23,1.45l.09.54c.08.5.17,1,.26,1.51,0,.15.05.29.07.44.1.53.19,1.06.29,1.59l.06.37c.1.55.21,1.1.31,1.66l.06.32c.12.6.23,1.21.35,1.83l0,.15c.13.67.27,1.35.41,2h0a451.67,451.67,0,0,1-45.68-3.71Zm-7.48-1-1.19-.19-1.92-.32-.85-.15c-.7-.13-1.4-.25-2.07-.39l-.56-.11-2.2-.45-.3-.07c-.79-.17-1.56-.35-2.32-.53h-.07c-9.17-2.21-16.38-5.09-26.21-9l-4.33-1.72c-1.17-1.93-2.24-3.75-3.27-5.52-1.69-2.93-3.22-5.7-4.65-8.5l0-.06c-.37-.71-.73-1.43-1.08-2.15l-.25-.5c-.27-.57-.55-1.14-.83-1.71-.16-.33-.31-.67-.47-1l-.59-1.25c-.21-.48-.43-1-.65-1.44l-.4-.9c-.26-.58-.52-1.18-.78-1.78-.09-.22-.19-.43-.28-.66-.3-.68-.59-1.38-.89-2.1-.07-.14-.13-.29-.19-.44-.32-.78-.65-1.57-1-2.39,0-.1-.09-.2-.13-.31-.34-.84-.69-1.7-1-2.59l-.12-.3-1-2.63-.21-.53c-.31-.81-.63-1.64-.95-2.49-.08-.19-.15-.38-.22-.57l.42.16,3.94,1.53,1.16.46,3.38,1.35c2.23.88,4.38,1.74,6.5,2.56l.34.13,1.66.63.58.22,1.41.52.83.31,1.26.44,1,.36,1.21.4,1.09.37,1.21.38,1.14.36c.4.13.81.24,1.22.36l1.2.36,1.27.35,1.23.34,1.32.34,1.29.32,1.38.32,1.34.31,1.44.31,1.42.3,1.52.29,1.48.28,1.62.28,1.56.27,1.64.25,1.53.24h0c.21.78.42,1.51.63,2.25.08.28.16.58.24.85.24.88.48,1.71.72,2.54l.18.61c.59,2,1.15,3.91,1.71,5.7l.12.39.7,2.19.23.71.58,1.74c.1.28.19.55.28.82.18.51.35,1,.53,1.51l.33.89c.16.45.32.91.49,1.35s.23.6.35.91l.48,1.25c.12.31.25.61.37.92s.32.8.49,1.2l.39.93.49,1.15c.14.32.28.63.43.95s.33.75.5,1.13l.45,1c.17.38.34.75.52,1.12l.48,1c.18.37.37.75.55,1.13s.34.67.5,1l.6,1.19c.17.34.35.68.53,1l.34.68-1-.15ZM276.3,399.35l-2.22-.87-1.06-.41-1.75-.7-1.31-.52-1.38-.57-1.45-.59-1.09-.46-1.6-.68-.78-.34c-.59-.25-1.19-.51-1.76-.77l-.51-.23-1.92-.87-.23-.1a195.88,195.88,0,0,1-20.3-11l-1.72-4.3c-2.47-6.18-4.52-11.32-6.25-16.56,0-.1-.07-.19-.1-.29-.17-.5-.32-1-.48-1.51-.09-.29-.19-.58-.28-.88s-.23-.77-.34-1.16-.25-.83-.37-1.25l-.27-1c-.13-.49-.27-1-.4-1.47-.07-.3-.15-.61-.23-.92-.13-.53-.26-1.06-.39-1.61l-.21-.92c-.13-.55-.26-1.11-.38-1.69-.07-.33-.14-.68-.21-1-.12-.56-.23-1.12-.34-1.69-.08-.4-.15-.81-.23-1.22s-.19-1.06-.29-1.61-.17-1-.25-1.52-.15-.94-.23-1.43c-.1-.65-.19-1.31-.29-2,0-.25-.07-.51-.11-.76l.42.21,1.43.74.85.43,1.28.63.91.45,1.2.57.93.44,1.13.52c.33.16.67.3,1,.45l1.07.47,1.05.46,1,.42,1.15.47,1,.39,1.24.47.92.36,1.35.49.89.32c.48.18,1,.35,1.49.52l.84.3,1.75.58.69.23,2.19.69.4.13c1.77.55,3.65,1.11,5.66,1.7l2,.57,1.05.3,3.13.88.09,0c.08.53.16,1,.24,1.54s.17,1.1.25,1.63.19,1.13.29,1.69.17,1,.26,1.48.21,1.11.31,1.66.17.9.26,1.34.23,1.08.34,1.61.18.84.26,1.25.25,1.05.37,1.57l.27,1.15c.13.55.27,1.08.41,1.61.08.33.16.66.25,1,.14.56.29,1.09.44,1.63l.24.88c.16.55.33,1.09.49,1.63.08.26.15.53.23.79l.51,1.6.24.75c.18.57.37,1.13.56,1.69l.21.6c.2.59.4,1.17.61,1.75l.18.52c.2.55.4,1.09.61,1.64l.22.61c.24.64.48,1.27.73,1.91l.12.32q.82,2.16,1.71,4.36l.07.18c.31.77.61,1.55.93,2.33.47,1.2,1,2.43,1.46,3.69.11.26.21.52.31.78.49,1.24,1,2.53,1.5,3.85l.22.58-1.72-.66Zm-53.94-91.73c0-.06,0-.13,0-.19-.07-.88-.13-1.78-.19-2.69,0-.17,0-.35,0-.52-.06-.81-.11-1.62-.16-2.45,0-.2,0-.4,0-.6,0-.84-.1-1.68-.15-2.55,0-.09,0-.18,0-.27-.22-4-.42-8.28-.62-13.18l2,.4.1,0,1.91.37.17,0,1.77.33.34.06,1.64.29.28.05L231,287l.36.05,1.63.27.36.06,1.66.25.36.05,1.73.26.17,0c5.56.8,12,1.55,20.78,2.49.06,1.32.12,2.6.18,3.85,0,.09,0,.18,0,.26.06,1.17.11,2.3.17,3.42,0,.31,0,.64.05.95.05,1,.1,2,.16,3l.06,1.07c0,.9.1,1.77.15,2.64,0,.41.05.83.08,1.24,0,.71.09,1.4.14,2.09.17,2.66.36,5.21.56,7.7,0,.29.05.59.07.88.06.73.13,1.46.19,2.18,0,.4.07.81.11,1.21.06.71.13,1.41.2,2.11l.12,1.26c.07.71.15,1.42.22,2.14,0,.4.08.81.13,1.22.07.71.16,1.43.24,2.15,0,.42.09.83.14,1.25.08.71.17,1.44.25,2.16.06.44.11.87.16,1.32.09.72.18,1.45.28,2.19.06.46.11.91.17,1.38.1.79.21,1.6.32,2.42.06.41.11.82.17,1.25.11.86.24,1.75.36,2.64.05.41.11.8.17,1.21.13,1,.27,2,.41,2.94,0,.29.08.56.12.84l-2.08-.58-.58-.16-2.39-.69-.8-.23-2-.59-.93-.28-1.76-.54-1-.31-1.56-.49-1-.33-1.44-.48-1-.33-1.36-.47-1-.35-1.33-.48-.9-.33-1.35-.52-.81-.32-1.81-.73-.29-.12c-2.11-.88-4.18-1.81-6.3-2.83h0l-2.13-1-.12-.06c-1.33-.66-2.7-1.36-4.13-2.11-.13-1-.25-1.9-.37-2.83C223.77,322.74,223,315.44,222.36,307.62Zm-20.22-29.23,0,0-.34-.2c-.2-8.4-.27-14.19-.27-20s.07-11.52.27-19.92l.38-.25.72-.38.11-.06.63-.31.18-.08.57-.27.27-.11.52-.22.32-.13.51-.2.35-.13.54-.19.36-.12.57-.19.42-.13.59-.18.47-.14.6-.17.54-.14.63-.17.56-.15.71-.17.61-.15.74-.17.69-.16.78-.18.75-.16.84-.19.79-.16.95-.2.78-.16.66-.14c-.21,5-.36,9.42-.46,13.54,0,.86,0,1.7-.06,2.53,0,.14,0,.28,0,.41-.12,6.18-.12,11.85,0,18,0,.22,0,.45,0,.67,0,.75,0,1.5.05,2.27.1,4.12.25,8.55.46,13.54l-1.34-.27-.82-.18-2.2-.47a71.7,71.7,0,0,1-9.3-2.54l-1.73-.69A22.58,22.58,0,0,1,202.14,278.39Zm19.62-60.63c0-.7.08-1.38.13-2.07l.06-1.08c0-.63.08-1.25.13-1.87,0-.37,0-.74.07-1.11l.15-2,.06-.92c.07-.89.14-1.77.22-2.65,0,0,0-.09,0-.13.56-6.6,1.29-13.07,2.33-21.1.14-1.12.3-2.28.45-3.47l1.36-.71.74-.38,1.48-.75.71-.35,1.53-.75.6-.29q.9-.43,1.8-.84l.29-.14c1.39-.64,2.77-1.24,4.17-1.83l.44-.18,1.67-.68.73-.28,1.43-.55.9-.33,1.33-.49,1-.35,1.31-.46,1.16-.38,1.26-.42,1.31-.42,1.25-.4,1.45-.44,1.26-.39,1.64-.49,1.24-.36,1.85-.54,1.21-.34,2.15-.6.83-.24c0,.29-.08.55-.12.84-.14,1-.28,2-.42,2.95-.05.4-.1.78-.16,1.18-.12.9-.25,1.81-.37,2.68l-.15,1.19c-.11.83-.23,1.67-.33,2.48-.06.44-.11.87-.17,1.31-.09.76-.19,1.52-.28,2.26l-.15,1.25c-.09.74-.18,1.49-.26,2.23-.05.39-.09.77-.13,1.16-.09.75-.17,1.5-.25,2.24l-.12,1.13c-.08.74-.16,1.49-.23,2.23,0,.38-.07.77-.11,1.16l-.21,2.2-.09,1-.21,2.36c0,.19,0,.38-.05.57-.21,2.67-.41,5.41-.6,8.27l-.12,1.81c0,.46-.06.93-.08,1.39-.05.83-.1,1.64-.15,2.49,0,.4-.05.81-.07,1.21,0,.94-.1,1.88-.15,2.85,0,.35,0,.72-.06,1.06-.05,1.09-.11,2.18-.16,3.31,0,.13,0,.26,0,.38-.06,1.22-.11,2.46-.17,3.75h0l-.42,0-2.66.29-1.34.15-1.72.19-1.36.15-1.49.17-2,.23-.68.08c-1.74.21-3.39.41-5,.62l-.33,0-2,.26-.46.07-1.71.23-.67.1-1.42.21-.75.12-1.29.2-.82.13-1.17.19-.89.16-1.09.18-1,.18-1,.18-1,.19-1,.18-1.07.21-1,.19-1.12.22-.65.13c.19-4.78.39-9,.61-12.88ZM226,177.15l.18-1.12c.1-.62.21-1.24.31-1.84.07-.42.15-.83.22-1.24s.2-1.08.3-1.6.17-.85.26-1.28.19-1,.29-1.43l.27-1.22c.11-.47.21-.94.32-1.4s.18-.71.26-1.06.25-1,.37-1.47c.08-.28.15-.56.23-.83.15-.55.29-1.1.44-1.63l.15-.51a223.3,223.3,0,0,1,7.64-21l1.72-4.3c4-2.43,7.55-4.48,11-6.36l.57-.31,1.35-.71.89-.46,1.33-.68.89-.44,1.54-.76.68-.33,1.83-.85.44-.21c.7-.32,1.41-.65,2.14-1l.19-.09c4.82-2.14,10.2-4.31,16.94-6.88l-.18.47c-.54,1.38-1.06,2.72-1.57,4l-.23.6-1.52,3.82-1.47,3.71-.36.89-.32.85-.56,1.41-.24.63-.61,1.62-.24.65c-.19.53-.39,1.05-.58,1.59l-.27.76c-.18.5-.36,1-.53,1.5-.09.25-.17.5-.25.75-.18.51-.35,1-.52,1.55-.09.26-.17.52-.25.78-.17.52-.33,1-.5,1.57-.08.28-.16.57-.25.85-.16.52-.31,1-.46,1.58-.09.29-.17.59-.25.89-.15.53-.3,1.06-.44,1.61-.09.32-.17.65-.25,1-.14.54-.28,1.08-.41,1.63-.09.36-.17.73-.26,1.1-.13.54-.25,1.07-.38,1.62-.08.39-.16.79-.25,1.19-.12.55-.24,1.1-.35,1.67l-.24,1.26c-.11.58-.23,1.15-.34,1.75-.08.45-.16.92-.23,1.38s-.21,1.18-.31,1.79l-.24,1.53c-.08.54-.17,1.07-.25,1.62l-2.29.65-.8.22-2.83.81-.3.09c-2,.59-3.94,1.16-5.73,1.71l-.17.06c-.83.26-1.64.51-2.42.77l-.52.17-1.93.64-.66.23-1.68.58-.7.26-1.53.56-.77.29-1.4.54-.78.32-1.35.55-.76.32-1.33.56-.78.35-1.3.59-.79.36-1.32.62-.79.38-1.34.65-.81.41-1.39.7q-.41.19-.81.42l-.81.41c0-.2.06-.39.08-.59C225.76,178.63,225.87,177.88,226,177.15Zm62.87-82.54c.32-.69.63-1.37,1-2,.06-.14.13-.28.2-.42.29-.61.58-1.21.88-1.81.1-.2.2-.4.31-.6.26-.54.53-1.07.81-1.61l.35-.67c.27-.52.54-1,.82-1.56l.21-.39c1.9-3.55,4-7.14,6.44-11.2l4.32-1.72c7-2.8,12.7-5.07,18.71-7l.45-.14,1.52-.45.89-.26,1.26-.34,1.21-.33,1.13-.28,1.39-.35,1.12-.25,1.49-.34,1.21-.24,1.5-.31,1.39-.25,1.44-.26,1.7-.29,1.24-.2L344,61l.6-.08-.41.79-.42.83-.68,1.35-.44.87L342,66.05l-.42.88c-.2.41-.39.81-.57,1.22s-.28.58-.41.87l-.54,1.21-.39.88-.51,1.2c-.13.3-.26.59-.38.89s-.34.82-.5,1.23l-.36.89c-.17.42-.33.86-.5,1.29l-.33.88c-.17.45-.34.91-.5,1.37-.11.29-.22.57-.32.87-.17.48-.35,1-.52,1.48l-.29.85c-.19.55-.37,1.11-.56,1.67-.08.26-.17.52-.25.78-.24.73-.47,1.47-.71,2.23,0,.12-.07.23-.11.34-.56,1.79-1.12,3.69-1.71,5.72-.06.17-.11.36-.16.54-.24.84-.49,1.69-.74,2.57-.09.34-.19.71-.29,1.06L330.39,99l-1.62.25-1.54.23-1.77.31-1.4.24-1.75.33-1.25.24-1.68.36-1.18.25-1.68.39-1,.24-1.68.42-.93.24-1.6.44-.91.25-1.56.46L308,104l-1.49.47-.87.27-1.5.51-.79.26-1.68.6-.58.2-1.49.55-.77.28-1.31.5-.93.35-1.31.51-.94.37-1.69.66-.59.24-2.32.92-4,1.59-.39.15-4,1.58-.48.18c3-7.85,5.45-13.88,7.95-19.3Zm87.54-37.09h.07c5.7-.4,11.87-.71,19.46-1-.14.69-.28,1.37-.41,2,0,0,0,.08,0,.13l-.36,1.85c0,.1,0,.2-.05.29-.11.57-.22,1.14-.32,1.7,0,.1,0,.21-.05.31l-.3,1.65-.06.36-.27,1.6c0,.14-.05.29-.07.43-.09.52-.17,1-.26,1.56l-.06.44c-.09.52-.17,1-.25,1.57,0,.16-.05.33-.07.49-.08.53-.16,1.06-.24,1.61,0,.1,0,.2,0,.3-.79,5.54-1.53,11.9-2.47,20.64-10.78.49-19.22,1-27.15,1.64l-1,.09c-.81.07-1.61.13-2.41.21l-1.47.14-1.87.18-1.8.18-1.56.17-1.9.21-1.51.17-2.11.25-1.32.15-2.31.29L343,97.3l-2.43.32-1.26.17-2.64.36-1.2.17-3,.42-.81.11.24-.85.59-2.11.35-1.22c.18-.63.36-1.26.54-1.87.12-.41.24-.8.35-1.2l.5-1.67c.12-.41.24-.8.36-1.2s.32-1,.47-1.53.24-.74.36-1.11.31-1,.46-1.46l.36-1.07c.15-.45.3-.91.45-1.34s.25-.72.37-1.08.29-.84.44-1.25.25-.69.38-1,.29-.8.43-1.19l.41-1c.14-.38.28-.75.43-1.12s.32-.78.47-1.17l.38-.93.69-1.61c.15-.35.31-.7.47-1,.21-.5.43-1,.66-1.49l.36-.76c.2-.44.41-.88.62-1.32.13-.27.26-.55.4-.82.21-.44.42-.88.64-1.32.13-.26.27-.53.4-.8l.7-1.39.43-.83c.22-.42.43-.84.66-1.27l3.91-.51C360.05,58.93,367.71,58.12,376.39,57.52Zm53.47-1.65c5.62.09,11.59.28,18.73.57.1.48.2,1,.29,1.43,0,.11.05.23.07.35.11.55.21,1.09.32,1.63l.09.47.27,1.47c0,.19.07.39.11.57.09.49.18,1,.26,1.47,0,.17.07.35.1.52.09.55.18,1.09.28,1.63l.06.35c.1.6.19,1.19.29,1.79a1.7,1.7,0,0,0,0,.22c1.06,6.65,2,13.91,3.14,25.07l-3.22-.14-.81,0-3.16-.13-1.21,0-2.6-.09-1.55-.06-2.08-.06-1.86-.06-1.52,0-2.3-.06h-.78c-6.81-.13-13.15-.13-19.95,0h-.78l-2.3.06-1.51,0-1.87.06-2.07.06-1.57.06-2.58.09-1.25.05-3.11.12-.87,0-3.16.13C393,82.25,393.88,75,394.94,68.34h0c.1-.66.21-1.32.32-2,0-.14.05-.28.07-.42l.27-1.58c0-.14.05-.29.08-.43.09-.53.19-1,.28-1.58,0-.14.06-.28.08-.42l.3-1.61.09-.45c.1-.55.21-1.09.32-1.65,0-.12.05-.24.07-.36.09-.46.19-.94.28-1.42,7-.29,12.94-.48,18.48-.56C420.43,55.8,425,55.8,429.86,55.87Zm19-4.1-.1-.46c-.2-.9-.38-1.76-.58-2.51a2,2,0,0,0-.09-.36c-.12-.52-.24-1-.35-1.48-.45-1.81-.87-3.3-1.3-4.56-.14-.43-.28-.82-.42-1.2s-.18-.47-.27-.69L445.5,40c-.08-.2-.16-.4-.24-.57-.21-.5-.45-1-.7-1.51A218,218,0,0,1,492,47.9l.52.72c.08.11.16.21.23.32.28.39.55.79.83,1.21a.18.18,0,0,0,0,.07l.8,1.25.22.35.67,1.1.25.43c.23.37.45.75.68,1.15l.26.46c.24.42.49.85.74,1.3l.22.41c.28.5.56,1,.85,1.56l.17.3.51.95-2.15-.28-.5-.06-1.78-.23-2.17-.27-.28,0c-14.58-1.81-24.54-2.55-42.58-3.29-.24-1.2-.47-2.32-.71-3.38l-.57.13Zm55,9.57,1.56.25,1.38.23,1.79.32,1,.19,1.9.39.8.16,2,.44.65.15,1.92.47.61.15,1.8.49.65.18,1.63.47.77.23,1.35.43c.34.11.69.21,1,.33l.89.29L527,67l.12,0c4.52,1.58,9.08,3.4,14.41,5.53l4.33,1.72a193.86,193.86,0,0,1,11,20.42l0,.08c.32.68.63,1.38.94,2.07l.16.36c.28.62.56,1.26.84,1.91.09.21.18.41.27.63.25.57.5,1.17.75,1.76.12.31.25.6.38.91l.67,1.63c.16.4.33.8.49,1.21s.39,1,.58,1.45.43,1.06.65,1.61c.14.38.3.77.45,1.16.28.71.56,1.42.84,2.17.1.24.19.48.28.73.22.56.44,1.15.67,1.73l-.58-.22-3.84-1.5-.83-.33L556,110.64c-2.29-.91-4.49-1.79-6.68-2.63l-.15-.06-1.75-.66-.49-.19-1.18-.43-1.09-.4-1-.35-1.28-.45-1.09-.37-1.21-.4-1-.33-1.31-.42-1-.29-1.43-.43-1-.28-1.49-.41-1-.26-1.58-.4-1.13-.26-1.58-.37-1.28-.27c-.53-.11-1-.23-1.58-.33l-1.36-.27-1.65-.31-1.49-.26-1.68-.28-1.63-.26L515.32,99c-.08-.28-.15-.54-.23-.81-.22-.8-.44-1.61-.66-2.37-.17-.59-.33-1.16-.5-1.73s-.26-.93-.39-1.37q-.87-3-1.7-5.68l-.06-.17c-.25-.82-.51-1.63-.76-2.42-.07-.19-.13-.37-.19-.56-.21-.63-.41-1.26-.62-1.87l-.28-.81c-.18-.51-.35-1-.53-1.52-.1-.29-.21-.57-.31-.85q-.25-.7-.51-1.38c-.11-.31-.23-.62-.35-.92l-.48-1.24c-.12-.32-.25-.64-.38-1s-.31-.77-.47-1.15l-.42-1L506,71.15c-.16-.35-.31-.7-.47-1l-.45-1c-.17-.38-.35-.75-.52-1.13s-.29-.63-.44-.94l-.57-1.19-.45-.91-.64-1.29-.42-.84c-.25-.47-.49-1-.75-1.44-.07-.14-.13-.27-.21-.41l.83.11Zm66.15,56,.68.27,2.44,1,.59.24,2.29.92.65.26,2,.84.86.36,1.69.72,1.12.48,1.32.58,1.43.65.9.4,1.87.87.4.19c4.94,2.36,9.51,4.83,14.68,7.86,1.25.73,2.52,1.49,3.85,2.3l1.72,4.32c3.57,8.92,6.27,15.69,8.39,23.71l0,.12q.29,1.06.54,2.16l.09.36c.16.66.31,1.33.46,2,0,.22.1.43.14.64.13.61.26,1.23.38,1.85.07.31.13.62.19.93.11.55.21,1.12.31,1.68s.15.84.23,1.27.16,1,.24,1.47.18,1.1.27,1.67l.18,1.22c.06.44.13.9.19,1.37l-.7-.36-1-.5-1.25-.63-.94-.47-1.2-.59-.93-.44-1.18-.56-.91-.42-1.18-.53-.9-.4-1.21-.51-.88-.37-1.24-.51-.88-.35-1.28-.5-.89-.34-1.33-.49-.91-.33-1.45-.5-.89-.31-1.59-.53-.86-.28-1.83-.58-.76-.24q-2.65-.83-5.65-1.7l-1-.29-2.15-.61-1-.28-2.14-.6c-.07-.51-.15-1-.23-1.51s-.17-1.12-.26-1.66-.17-1-.26-1.54-.19-1.11-.28-1.64-.19-1-.28-1.46-.2-1-.3-1.54-.19-.92-.29-1.38-.2-1-.31-1.48-.21-.88-.31-1.32-.21-.94-.32-1.4-.22-.84-.32-1.26-.23-.91-.35-1.35-.22-.8-.33-1.21-.23-.86-.35-1.29l-.36-1.19c-.12-.41-.24-.83-.36-1.23l-.36-1.13c-.13-.41-.25-.82-.39-1.22s-.24-.72-.36-1.08-.27-.82-.41-1.22l-.39-1.12c-.14-.38-.27-.76-.4-1.13l-.38-1-.45-1.24c-.08-.22-.17-.43-.25-.64l-.6-1.59c-.09-.23-.18-.45-.26-.67-.78-2-1.6-4.06-2.44-6.18-.49-1.22-1-2.49-1.5-3.78-.09-.22-.17-.43-.26-.64l-1.61-4.14c0-.12-.09-.23-.13-.34l.6.23Zm52.88,167-1.56.3-.52.1-1.49.28-.55.1-1.54.28-.44.08-1.77.3-.21,0-2,.33h0c-6.65,1.06-13.91,1.95-25.08,3.14,0-.37,0-.72.05-1.09,0-1.1.09-2.19.14-3.24,0-.32,0-.61,0-.92.05-1.16.09-2.31.14-3.42,0-.11,0-.21,0-.32,0-1.27.09-2.51.13-3.73v-.21c.42-13,.42-23.28,0-36.28v-.17c0-1.23-.09-2.5-.14-3.78v-.27c0-1.13-.09-2.3-.14-3.49l0-.84c-.05-1.09-.1-2.22-.15-3.35,0-.34,0-.65,0-1l1.49.16,1.43.16,1.63.18,1.47.16L595,228l1.53.18,1.1.13,1.6.18.89.11,1.63.2.81.1,1.56.2.75.1,1.51.2.76.11,2.17.31,1.3.19.76.12,1.28.2.71.12,1.31.21.59.1,1.41.24.57.11,1.44.25.55.11,1.49.28.51.09,1.57.31.5.1,1.31.26c.31,7.63.5,13.91.58,19.85,0,4,0,7.81,0,11.79-.08,5.94-.27,12.21-.58,19.84l-1.31.26Zm-36.58,10.19c-.06,1.42-.13,2.79-.2,4.14,0,0,0,.11,0,.16-.06,1.23-.13,2.43-.2,3.61,0,.17,0,.34,0,.51-.07,1.21-.14,2.39-.21,3.55a2.83,2.83,0,0,0,0,.3c-.08,1.2-.16,2.39-.24,3.55a.76.76,0,0,1,0,.15c-.08,1.15-.16,2.29-.24,3.41,0,.05,0,.12,0,.18-.08,1.17-.18,2.32-.27,3.47h0c-.19,2.28-.4,4.52-.62,6.75v.07c-.11,1.13-.23,2.26-.35,3.4,0,.12,0,.25,0,.37-.11,1-.23,2-.34,3-.66,5.68-1.46,11.66-2.46,18.59l-2.34.64-.94.26-2.46.65-.93.25-2.38.6-.9.23-2.45.6-.73.18c-.8.2-1.59.38-2.38.56l-.77.18-2.36.53-3,.66-.76.16-2.5.5-.6.12-2.52.49-.63.12-2.47.45-.77.14-2.61.46-.72.12-2.83.48-.63.1-2.84.46-.82.13-2.9.45-.94.14-2.83.43-1.28.19-2.84.42-1.18.18c.23-1.58.44-3.19.66-4.79.12-.87.25-1.73.36-2.61.23-1.75.44-3.52.66-5.29.11-.92.23-1.82.34-2.73.2-1.79.39-3.6.58-5.41.1-.92.21-1.82.3-2.75.19-1.87.36-3.75.53-5.64.08-.88.17-1.76.25-2.65.17-2,.33-4,.48-6.06s.29-3.9.42-5.87c.11-1.64.22-3.27.32-4.92.09-1.48.16-3,.23-4.48s.16-2.74.22-4.12c.07-1.61.13-3.24.19-4.86,0-1.21.1-2.42.14-3.64,14.82-.85,24.83-1.51,34.74-2.36l.34,0,2.5-.22.54-.05,2.57-.24.46,0,2.61-.25.5-.05,3-.3h.15l6.71-.7c-.06,1.26-.12,2.5-.17,3.69Zm-5.89,59.37c-.09.54-.18,1.06-.27,1.58s-.17,1-.26,1.53-.2,1-.3,1.54-.17.93-.26,1.38l-.33,1.56c-.08.41-.17.82-.26,1.21s-.23,1.05-.35,1.56-.17.74-.26,1.1l-.39,1.54c-.08.33-.17.67-.25,1-.14.54-.29,1.06-.43,1.58l-.24.85q-.24.82-.48,1.62c-.07.25-.14.5-.22.75-.17.55-.34,1.1-.52,1.65l-.21.65c-.19.58-.38,1.15-.58,1.72-.06.18-.11.36-.18.54-.21.63-.43,1.25-.66,1.87l-.12.36-.81,2.21h0c-1.12,3-2.32,6-3.62,9.28q-.92,2.3-1.88,4.75h0q-1,2.44-2,5.1l0,0h0c-1.76.67-3.44,1.32-5.06,2l-.31.12-4.48,1.78c-3.17,1.26-6.11,2.44-9,3.53l-.11.05-1.78.65-.46.17-1.63.58-.61.21-1.55.53-.71.23-1.54.5-.76.23c-.5.16-1,.31-1.54.46l-.82.24-1.54.43-.91.25-1.55.39-1,.25-1.61.38-1,.24-1.64.35-1.17.24L523,415l-1.28.24-1.7.3-1.42.24-1.74.27-1.15.18.29-1.08c.19-.69.38-1.39.56-2.07.13-.47.25-.92.37-1.38.17-.66.35-1.33.52-2,.12-.47.23-.92.35-1.38l.48-1.88.33-1.36c.15-.6.3-1.21.44-1.8s.22-.91.32-1.37.28-1.18.41-1.76l.3-1.31.39-1.78c.1-.44.19-.88.28-1.32s.26-1.17.38-1.76.19-.93.28-1.39.23-1.14.34-1.72.21-1.05.31-1.57l.3-1.59.36-2c.08-.42.16-.83.23-1.25,1.17-6.56,2.29-13.77,3.58-22.6,8.84-1.29,16-2.41,22.62-3.58l.67-.12,2.56-.47,1.27-.24,1.89-.36,1.51-.31,1.59-.32,1.62-.34,1.47-.32,1.67-.37,1.42-.31,1.72-.41,1.39-.32,1.75-.43,1.43-.35,1.82-.46,1.43-.37,1.87-.49,1.51-.4,2-.53,1.16-.31-.18,1.19C580.54,352.79,580.46,353.35,580.37,353.89ZM482.3,420.18l-2.05.17-1.46.11-1.44.11-2.16.15-1.1.08-2.62.17-.93,0-2.94.18-.89.05-3.2.17-.74,0-3.6.18-.48,0-3.48.16c.37-3.49.7-6.73,1-9.83,0-.13,0-.25,0-.38.09-.92.18-1.83.26-2.73l0-.27c.09-.92.17-1.85.25-2.76l0-.29c1-10.95,1.7-21.46,2.63-37.84l4-.16,4.44-.17c2.16-.1,4.3-.22,6.45-.34l2.11-.11q8.61-.51,17-1.23l.63-.06q3.84-.33,7.64-.72c.65-.06,1.28-.14,1.93-.21q3.12-.32,6.21-.67l2.43-.3c1.87-.23,3.74-.45,5.59-.69l2.52-.36c1.63-.22,3.26-.43,4.86-.67-.06.46-.13.91-.2,1.36-.12.87-.25,1.75-.38,2.6-.1.67-.2,1.31-.29,1.95s-.21,1.4-.32,2.07-.22,1.45-.33,2.16c-.09.56-.18,1.13-.26,1.67-.12.77-.24,1.52-.36,2.27-.08.46-.15.93-.23,1.38-.14.86-.28,1.7-.42,2.54l-.15.93c-.16.89-.31,1.77-.46,2.64,0,.24-.09.49-.13.73-.16.92-.33,1.81-.5,2.71,0,.18-.06.37-.1.55-.18,1-.36,1.94-.55,2.9l-.06.27c-.82,4.21-1.71,8.27-2.72,12.49l-.12.47c-.22.9-.44,1.8-.67,2.72l-.18.71c-.21.85-.43,1.69-.65,2.56-.08.28-.16.58-.23.87-.22.84-.44,1.68-.67,2.54-.07.26-.15.52-.22.78-.22.82-.44,1.64-.67,2.48-12.32,1.77-21.61,2.91-31.63,3.76Zm-32.48,1.88-2.43.09-2,.08-1.53,0-2.62.09-.63,0c-12.72.4-22.87.4-35.59,0l-.63,0-2.63-.09-1.52,0-2-.08-2.43-.09-1.22-.06-3-.12c-2-18.76-2.89-30.13-4.26-54.11,3.4.16,6.82.25,10.22.37,2.46.08,4.91.2,7.37.26,3,.07,6,.08,8.95.11s5.93.11,8.89.11,5.93-.07,8.9-.11,6,0,8.94-.11c2.47-.06,4.91-.18,7.37-.26,3.41-.12,6.83-.21,10.22-.37-1.36,24-2.26,35.35-4.25,54.11l-3,.12Zm-63.24-.42-4-.2-.35,0-3.84-.2-.22,0-3.66-.21-.22,0-3.59-.23h-.11l-3.47-.25H367l-3.22-.26-.27,0c-2.3-.19-4.55-.4-6.8-.62h0c-2.24-.23-4.49-.47-6.79-.74-5.69-.66-11.67-1.45-18.61-2.45l-.27-1-.65-2.42c-.11-.4-.21-.78-.32-1.17-.19-.74-.39-1.48-.57-2.19l-.33-1.26c-.17-.67-.34-1.34-.5-2-.11-.42-.21-.84-.31-1.26-.16-.64-.32-1.29-.47-1.92-.08-.33-.15-.65-.23-1-.17-.71-.34-1.43-.5-2.14,0-.16-.08-.32-.11-.49-.34-1.47-.66-2.93-1-4.39l-.27-1.26c-.11-.54-.22-1.09-.32-1.63s-.21-1-.3-1.48l-.33-1.68c-.09-.5-.19-1-.28-1.49s-.2-1.06-.29-1.59-.21-1.11-.31-1.67-.18-1-.27-1.53-.21-1.21-.32-1.84-.17-1-.25-1.52-.22-1.31-.33-2c-.08-.47-.16-1-.23-1.44-.12-.75-.24-1.5-.37-2.27-.06-.41-.13-.85-.19-1.27-.14-.87-.27-1.73-.41-2.62-.05-.35-.11-.71-.16-1.06-.16-1-.31-2.08-.48-3.16,0-.13,0-.27-.05-.4-.16-1.06-.32-2.16-.49-3.27,1.63.24,3.29.46,4.94.69.82.11,1.62.23,2.45.33,1.85.25,3.73.48,5.61.7.8.1,1.6.21,2.41.3,2,.24,4.11.45,6.18.67.65.07,1.3.15,2,.21,2.51.26,5,.49,7.58.72l.69.06q8.37.72,17,1.23l2.13.11c2.13.12,4.27.24,6.43.34l4.44.17,4,.16c.94,16.38,1.65,26.89,2.64,37.84,0,.1,0,.19,0,.29.09.91.17,1.84.26,2.76a2.45,2.45,0,0,1,0,.27q.13,1.35.27,2.73l0,.38c.31,3.1.64,6.34,1,9.83l-3.81-.17Zm-59.4-5.9-1.54-.26-1.56-.27-1.48-.28-1.46-.28-1.4-.29-1.39-.3-1.36-.31-1.29-.3-1.33-.34-1.21-.31-1.27-.34-1.18-.33-1.2-.36-1.16-.34-1.17-.37L306,410.7l-1.16-.39-1.1-.37-1.13-.4-1.11-.39-1-.38-1.2-.45-.91-.34-1.35-.51-.56-.22c-2.06-.8-4.16-1.64-6.37-2.52l-4.69-1.86-.07,0c-1.59-.62-3.25-1.27-5-1.93l-.15-.06,0-.06q-1-2.6-1.93-5c-.08-.22-.16-.42-.25-.64L276.35,391l-1-2.38c0-.12-.09-.24-.14-.37-.27-.66-.53-1.32-.78-2l-.14-.35c-.25-.64-.5-1.27-.74-1.9l-.27-.72c-.2-.51-.39-1-.58-1.53-.1-.24-.19-.49-.28-.74-.18-.5-.37-1-.55-1.49-.09-.26-.18-.53-.28-.79-.17-.48-.34-1-.5-1.44l-.3-.87c-.15-.47-.31-.93-.46-1.4-.1-.3-.2-.6-.29-.9-.15-.46-.3-.93-.44-1.4-.1-.32-.2-.65-.29-1s-.28-.92-.41-1.4c-.1-.33-.19-.67-.28-1s-.27-.95-.4-1.44l-.27-1.05c-.12-.49-.25-1-.37-1.49s-.17-.75-.26-1.12-.24-1-.35-1.53-.17-.8-.26-1.2l-.33-1.6c-.09-.41-.16-.83-.24-1.25s-.22-1.12-.33-1.7-.15-.87-.22-1.3c-.11-.6-.21-1.2-.31-1.82-.08-.45-.15-.92-.22-1.38s-.14-.94-.22-1.41l1.17.31,1.95.53,1.54.41,1.84.48,1.46.37,1.79.46,1.46.36,1.72.41,1.42.34,1.7.4,1.42.31,1.67.37,1.43.31,1.66.35,1.48.3,1.63.33,1.66.32,1.5.28,2,.37,1.22.23c6.56,1.16,13.77,2.28,22.6,3.57.43,2.93.84,5.68,1.24,8.29,0,.19,0,.36.08.55.17,1.12.34,2.22.51,3.28,0,.1,0,.2.05.3.35,2.25.7,4.4,1.05,6.47l.06.33c.06.39.13.75.2,1.13.13.76.26,1.52.39,2.26l.18,1c.14.76.27,1.52.41,2.26l.21,1.09c.13.7.27,1.39.4,2.08.08.42.17.85.26,1.27.12.61.24,1.23.37,1.84.09.46.19.91.29,1.36s.24,1.16.37,1.73l.3,1.38.39,1.73c.1.45.21.91.32,1.37s.27,1.16.41,1.75.23.93.34,1.39.29,1.2.44,1.8l.36,1.4c.16.62.31,1.24.47,1.87.12.46.25.93.37,1.4.18.67.35,1.34.54,2,.11.43.23.87.35,1.31s.3,1.11.46,1.68L328.9,416C328.32,415.92,327.74,415.84,327.18,415.74Zm-63.55-73.67c-1.56-11.5-2.53-20.66-3.28-31.59v-.1c-.09-1.18-.16-2.38-.24-3.6,0-.08,0-.17,0-.25-.07-1.19-.14-2.39-.21-3.63,0-.09,0-.19,0-.28-.07-1.23-.13-2.48-.2-3.77l0-.49c-.06-1.24-.12-2.5-.19-3.8,0-.19,0-.4,0-.59-.06-1.1-.11-2.23-.16-3.39l6.69.7.18,0,2.95.29.55.05,2.55.25.52.05,2.52.23.5,0c10.88,1,21.37,1.69,37.65,2.62.05,1.67.12,3.32.19,5,.05,1.15.08,2.31.14,3.47.08,1.82.18,3.62.28,5.43.06,1.06.1,2.13.16,3.18.16,2.63.33,5.23.52,7.83,0,.27,0,.55,0,.82.2,2.76.42,5.51.66,8.23.08.92.17,1.82.25,2.73.17,1.86.34,3.72.52,5.55l.33,3c.18,1.71.36,3.42.56,5.11.12,1.07.26,2.11.39,3.17.2,1.62.39,3.24.6,4.85.14,1.07.3,2.13.44,3.2.2,1.41.39,2.84.59,4.24l-.85-.13-3.23-.47-1-.15-3.11-.47-.71-.11-3.11-.48-.68-.11-3-.48-.45-.08-3-.5-.51-.09-2.81-.49L296,357l-2.64-.48-.35-.07-2.79-.54-.22,0c-2.39-.47-4.74-1-7.1-1.5l-1.92-.43-.87-.2-2.28-.54-.76-.18-2.43-.6-.79-.2-2.5-.64-.66-.17-2.75-.73-.58-.16-2.66-.73c-.38-2.64-.74-5.15-1.06-7.55A.77.77,0,0,1,263.63,342.07Zm-30.89-56-1.78-.29-.36-.06-1.62-.28-.55-.1-1.44-.26-.57-.1-1.48-.28-.48-.09-1.61-.32-.38-.07-1.4-.28c-.2-4.82-.35-9.11-.46-13.1,0-.19,0-.38,0-.57s0-.61,0-.92c-.19-7.84-.18-14.71,0-22.58,0-.2,0-.4,0-.61s0-.59,0-.88c.1-3.92.25-8.11.45-12.82l1.42-.29.35-.07,1.67-.32.43-.08,1.63-.31.39-.07,1.62-.29L229,231l1.58-.27.43-.08,1.92-.31H233c2.71-.43,5.52-.84,8.65-1.25l.27,0,2.15-.27.23,0,2.28-.28.67-.08,2-.24.64-.07,2.23-.25.78-.09,2.33-.25.83-.09,2-.22c-.05,1.09-.1,2.13-.14,3.17,0,.28,0,.58,0,.86,0,1.16-.09,2.27-.13,3.38,0,.31,0,.64,0,.95,0,1-.07,1.95-.1,2.91,0,.41,0,.84,0,1.24,0,.88-.05,1.74-.08,2.59,0,.45,0,.9,0,1.34,0,.8,0,1.58-.06,2.36l0,1.43c0,.84,0,1.66,0,2.48,0,.39,0,.79,0,1.18,0,1,0,1.95,0,2.92v.67c0,1.2,0,2.39,0,3.57h0c0,1.19,0,2.38,0,3.57v.66c0,1,0,2,0,2.94,0,.38,0,.77,0,1.16,0,.83,0,1.65,0,2.5l0,1.4c0,.79,0,1.58.06,2.39,0,.43,0,.87,0,1.3,0,.87,0,1.73.08,2.63,0,.39,0,.8,0,1.19,0,1,.07,1.95.1,3,0,.29,0,.59,0,.88,0,1.13.09,2.28.13,3.46,0,.24,0,.51,0,.76,0,1.07.09,2.14.14,3.25-11.17-1.19-18.42-2.08-25.07-3.14Zm26.7-64.19c.07-1.33.13-2.62.2-3.89,0-.13,0-.27,0-.4.07-1.32.14-2.59.21-3.84a1.62,1.62,0,0,1,0-.22c.07-1.24.14-2.46.22-3.65a1.77,1.77,0,0,1,0-.23c.08-1.23.15-2.43.24-3.62V206c.75-10.92,1.72-20.08,3.27-31.57,0-.19.06-.38.08-.57.15-1.1.31-2.21.47-3.36,0-.17.05-.35.07-.52.15-1.07.31-2.16.47-3.28l1.37-.37,2-.54,1.47-.39,1.9-.5,1.53-.4,1.73-.43,1.47-.37,1.72-.42,1.28-.3,1.83-.43,1.27-.28,3.86-.85,1-.21,1.63-.33,1.5-.3,1.5-.29,1.67-.32,1.58-.29,1.66-.3,1.64-.29,1.73-.3,1.58-.27,1.94-.32L305,158l2.3-.37,1.2-.19,2.72-.42,1-.15,3.17-.47.68-.1,3-.45c-.21,1.42-.4,2.88-.6,4.32-.14,1-.29,2.07-.43,3.12-.21,1.61-.41,3.25-.61,4.88-.12,1.05-.26,2.08-.38,3.13-.2,1.71-.38,3.43-.56,5.15l-.33,3c-.18,1.86-.35,3.74-.52,5.61-.08.89-.17,1.78-.25,2.67-.24,2.78-.46,5.57-.67,8.39,0,.13,0,.26,0,.39-.2,2.68-.38,5.39-.54,8.11-.06,1-.1,2-.16,3.06-.1,1.85-.2,3.69-.28,5.56-.05,1.12-.09,2.26-.14,3.4-.06,1.68-.14,3.35-.19,5-13.59.77-23.13,1.39-32.24,2.15H281l-2.89.25-.28,0-2.73.24-.75.07-2.34.22-.79.08-2.29.22-1.11.11-2.16.21-1,.11-2.3.23-1.26.13-1.8.19c.05-1.18.11-2.35.16-3.48C259.43,222.23,259.44,222.07,259.44,221.91Zm5.89-59.3c.1-.6.2-1.18.3-1.76s.16-.91.24-1.35.2-1.11.31-1.65.16-.88.25-1.31.21-1,.32-1.54l.27-1.25.33-1.46c.1-.4.19-.81.29-1.21l.33-1.35c.11-.4.21-.8.31-1.19s.24-.87.35-1.29.21-.78.32-1.16.25-.83.37-1.24l.33-1.13c.12-.39.25-.77.37-1.15s.24-.78.37-1.16l.36-1.09c.13-.39.26-.78.4-1.17l.36-1c.15-.4.29-.81.43-1.21s.23-.63.35-.94.31-.86.47-1.29.23-.6.35-.91.33-.88.5-1.32l.28-.72c.78-2,1.6-4.07,2.46-6.23.58-1.46,1.19-3,1.8-4.54a2.44,2.44,0,0,0,.1-.24c.62-1.58,1.26-3.22,1.91-4.94a1.22,1.22,0,0,0,.07-.17l.16-.06c3.52-1.34,6.71-2.61,9.73-3.81l4.71-1.88.35-.13,1.93-.75.46-.18,1.77-.67.74-.27,1.48-.55.87-.3,1.37-.49,1-.32,1.28-.43,1.05-.34,1.25-.39,1.11-.33,1.25-.37,1.18-.33,1.27-.34,1.21-.31,1.33-.34,1.26-.29,1.4-.33,1.33-.28,1.46-.3,1.4-.27,1.54-.3,1.46-.25,1.67-.28,1.48-.24,1.35-.2c-.16.56-.3,1.1-.45,1.66s-.25.9-.36,1.34c-.19.69-.37,1.37-.55,2-.11.45-.24.91-.35,1.35-.17.65-.33,1.29-.49,1.93-.12.45-.24.91-.35,1.35q-.22.94-.45,1.86l-.33,1.33-.42,1.78c-.1.45-.21.91-.31,1.36-.14.6-.27,1.19-.4,1.79-.1.43-.2.86-.29,1.3-.13.59-.26,1.18-.38,1.78-.09.44-.19.88-.28,1.32-.13.6-.25,1.21-.37,1.81-.09.44-.17.87-.26,1.31l-.36,1.88c-.09.43-.17.86-.25,1.3-.12.66-.24,1.33-.37,2-.07.42-.15.83-.22,1.25-.12.65-.23,1.32-.35,2-.22,1.29-.44,2.61-.67,4l-.15.91c-.16,1-.32,2-.47,3,0,.22-.08.44-.11.66-.59,3.72-1.19,7.72-1.83,12.11-4.4.65-8.4,1.25-12.11,1.83l-.46.08-4.6.74-2.07.35-.47.08-2.89.5-1.06.19-2.2.41-1.15.22-2,.38-1.17.24-1.95.4-1.18.25-1.92.4-1.22.28-1.87.42-1.24.29-1.9.44-1.28.31-1.89.47-1.34.34-2,.5-1.3.34-2.1.55-1.3.36-1.69.45.21-1.37C265.18,163.57,265.25,163.08,265.33,162.61ZM335.1,99.54l3.36-.46L339,99l3.46-.46.27,0c6.12-.79,11.66-1.41,17.32-1.93l1.06-.1,2.32-.2,1.62-.13,1.83-.15,1.86-.13,1.69-.12,2.12-.14,1.54-.1,2.44-.15,1.38-.08,2.61-.15,1.43-.07,2.79-.14,1.45-.08,3.17-.14,1.11,0c-.25,2.33-.48,4.56-.7,6.71h0c-.1,1.05-.21,2.09-.31,3.11,0,.15,0,.29,0,.44-.09.9-.17,1.79-.26,2.67l0,.33c-.08.91-.17,1.81-.25,2.71,0,.09,0,.19,0,.28-1,11-1.7,21.47-2.64,37.85-1.66,0-3.32.13-5,.19l-3.47.14c-1.82.08-3.62.18-5.43.28l-3.19.17c-2.3.13-4.58.29-6.86.45-1,.07-1.93.13-2.89.21q-3.58.25-7.13.56l-2.79.26-5.49.52c-1,.1-2,.22-3,.33l-5.09.55-3.23.4-4.78.59-3.22.45c-1.41.2-2.83.38-4.23.59.15-1,.3-2.05.45-3,0-.23.07-.46.1-.68.16-1.08.32-2.11.47-3.14.05-.34.11-.69.16-1,.13-.86.26-1.68.39-2.51.07-.48.15-1,.22-1.44.11-.72.22-1.41.34-2.1.08-.53.16-1.06.25-1.57.11-.67.22-1.32.33-2s.17-1,.25-1.54.21-1.17.31-1.75.19-1.09.28-1.63.19-1.05.29-1.58.2-1.12.31-1.66.19-1,.29-1.53.21-1.1.32-1.65.19-1,.29-1.48l.33-1.63.27-1.26c.29-1.36.59-2.73.9-4.09l.18-.79c.12-.56.26-1.11.39-1.67s.22-1,.34-1.46.27-1.08.4-1.62.25-1,.38-1.56.3-1.18.45-1.78.25-1,.38-1.47.34-1.28.51-1.92l.38-1.46c.18-.64.36-1.31.54-2,.13-.46.25-.92.38-1.39l3.3-.47ZM396,94.4l2.15-.09,2-.08,3.37-.12.67,0c13.38-.44,23.82-.44,37.22,0l.63,0,3.41.12,2,.08,2.22.09,4,.17H454c2,18.77,2.89,30.14,4.25,54.11-3.83-.18-7.68-.29-11.52-.42-2-.06-4-.16-6-.21q-8.94-.23-17.91-.22t-17.9.22c-2,.05-4,.15-6,.21-3.84.13-7.69.24-11.53.42,1.37-24,2.26-35.35,4.26-54.11H392Zm56.56-21.88-.27-1.81c0-.09,0-.19,0-.28L452,68.71c0-.1,0-.2,0-.3-.09-.57-.19-1.13-.28-1.69,0-.1,0-.2-.05-.29-.09-.56-.18-1.11-.28-1.66,0-.1,0-.21-.05-.31l-.3-1.68c0-.1,0-.19-.05-.28-.11-.61-.23-1.22-.34-1.83a.5.5,0,0,1,0-.12c-.13-.64-.25-1.29-.38-1.94v-.06c-.13-.68-.27-1.36-.41-2.06a453.77,453.77,0,0,1,47.86,4l2,.27,1.05,2h0c.38.75.75,1.48,1.1,2.2h0c1.8,3.63,3.32,7,4.74,10.59l0,0c.27.7.55,1.41.82,2.14a2.83,2.83,0,0,1,.11.31c.24.63.47,1.27.71,1.92l.16.48c.22.61.44,1.22.65,1.86.06.17.12.34.17.51.22.64.43,1.28.65,1.94l.18.57.64,2c.06.21.13.44.2.65l.64,2.11c.06.21.13.43.19.63l.68,2.32c.06.19.12.4.17.59.24.84.49,1.69.74,2.57l.15.55.59,2.09-.88-.12-2.91-.41-1.16-.16-2.71-.37-1.17-.16-2.5-.33-1.19-.15-2.41-.3-1-.12-2.44-.29-1-.12-2.36-.26-1-.1-2.39-.25-.92-.09-2.45-.23-.74-.06-2.65-.24H482c-2.9-.24-5.88-.46-9-.66l-1.47-.1L470,94.23l-2.36-.14-1.1-.06-3-.16-.71,0-3.63-.19h-.28l-3.83-.18c-.95-8.88-1.71-15.29-2.51-20.89Zm65.9,28.19,1.7.29,1.43.24,1.57.3,1.37.27,1.47.3,1.33.29,1.36.31,1.31.3,1.24.32,1.31.33,1.14.31,1.31.36,1.05.32c.44.13.88.25,1.31.39l1,.31,1.31.42.91.3,1.36.46.84.3,1.39.49.78.29,1.45.53.66.25,1.59.6.35.14c2.13.82,4.29,1.69,6.57,2.6,3,1.21,6.28,2.5,9.84,3.85l.05,0,.06.17c.66,1.72,1.3,3.36,1.92,4.94,0,.08.06.14.08.21.63,1.58,1.23,3.1,1.82,4.57,1.61,4.06,3.09,7.76,4.44,11.5l.12.33c.22.63.45,1.26.66,1.89.07.19.13.39.2.58.19.56.38,1.11.56,1.68.08.24.15.48.23.72.17.52.33,1.05.5,1.58l.24.82c.16.51.31,1,.46,1.54.08.31.17.62.26.94.13.49.27,1,.4,1.49.1.35.19.72.28,1.07s.24,1,.37,1.47l.27,1.17c.11.49.23,1,.34,1.48s.18.86.28,1.3.2,1,.3,1.47.19,1,.29,1.46.18,1,.27,1.46.19,1.06.28,1.6.17,1,.26,1.51.18,1.14.27,1.73c.06.38.12.75.17,1.14l-1.68-.45-1.31-.36-2.13-.56-1.25-.33-2-.52-1.27-.32-2-.48-1.2-.3-2-.46-1.17-.27-2-.44-1.12-.25-2-.43-1.1-.23c-.68-.15-1.38-.28-2.08-.42l-1-.21-2.2-.43-1-.18-2.48-.46-.77-.14c-2.17-.38-4.4-.76-6.74-1.14l-2.32-.38-1.47-.23-3-.47-.8-.12c-2.6-.4-5.35-.81-8.27-1.24-1.29-8.83-2.41-16-3.58-22.59-.08-.44-.16-.86-.23-1.3l-.36-1.94-.3-1.57c-.1-.53-.2-1.07-.31-1.6l-.33-1.67c-.1-.48-.19-1-.29-1.43s-.25-1.16-.37-1.74-.19-.9-.29-1.35l-.39-1.76-.3-1.33c-.13-.58-.27-1.17-.41-1.75s-.21-.91-.32-1.37-.29-1.21-.44-1.81l-.33-1.35c-.16-.64-.33-1.28-.49-1.93-.11-.44-.22-.87-.34-1.32-.18-.68-.36-1.39-.55-2.1l-.33-1.23c-.2-.75-.4-1.51-.61-2.27-.09-.31-.17-.61-.25-.92l1.38.21Zm66.33,98.08.15,1.88c0,.54.09,1.08.13,1.63s.07.93.1,1.39c0,.73.11,1.45.16,2.19,0,.41,0,.83.08,1.24.06.82.11,1.64.16,2.48l.06,1c.06.94.12,1.89.18,2.87,0,.23,0,.48,0,.72.07,1.11.13,2.23.19,3.4,0,.12,0,.24,0,.36.06,1.3.13,2.61.2,4v.12c.06,1.23.12,2.5.18,3.79l-1.79-.18-1.27-.14-2.27-.23-1-.11-2.16-.21-1.09-.11-2.28-.22-.82-.08-2.3-.21-.79-.08-2.72-.24-.28,0-2.86-.25h-.2c-9.11-.76-18.65-1.38-32.24-2.15,0-1.24-.1-2.46-.14-3.69-.06-1.61-.12-3.22-.19-4.81-.06-1.39-.14-2.76-.22-4.14s-.14-3-.23-4.46c-.09-1.62-.21-3.21-.32-4.82q-.19-3-.43-6.08c-.15-2-.3-4-.47-5.95-.08-.9-.17-1.78-.25-2.67-.17-1.88-.34-3.76-.53-5.62-.09-.92-.2-1.83-.29-2.74-.2-1.81-.39-3.63-.59-5.42-.11-.9-.23-1.79-.33-2.68-.22-1.79-.44-3.59-.67-5.35-.11-.85-.23-1.68-.35-2.53-.22-1.62-.44-3.25-.67-4.86l3.22.47.45.07,3.25.49.93.14,2.65.41,1.29.2,2.15.34,1.55.25,1.75.3,1.78.29,1.45.26,1.92.33,1.29.24,2,.35,1.12.22,2.05.39.67.14c3.88.77,7.65,1.6,11.54,2.53l.11,0,2.46.6.72.18c.79.19,1.6.4,2.4.61l.86.21,2.43.65.93.24,2.47.68.94.25c1.76,12.21,2.89,21.45,3.74,31.37C584.76,198.3,584.79,198.54,584.81,198.79Zm-54,104.49c-.07,1.72-.17,3.43-.26,5.14-.06,1.16-.12,2.33-.18,3.48-.11,1.78-.23,3.54-.35,5.31l-.21,3.2c-.14,1.94-.31,3.87-.46,5.79-.08.87-.14,1.75-.21,2.61q-.36,4.15-.78,8.24c-.08.81-.17,1.61-.26,2.41-.2,1.92-.4,3.84-.62,5.73-.11.95-.24,1.89-.35,2.83-.21,1.73-.42,3.47-.65,5.19-.11.9-.25,1.78-.37,2.67-.22,1.65-.45,3.31-.69,4.94-1.85.28-3.71.53-5.58.79-.67.09-1.33.19-2,.27-2.27.3-4.57.58-6.87.86l-1.13.14q-12.17,1.41-24.9,2.34l-1.8.12c-2.22.15-4.44.3-6.68.43l-3.12.17c-1.82.09-3.64.2-5.48.28l-3.6.14c-1.59.07-3.17.13-4.77.18h0c0-.42,0-.86.07-1.28.12-2.24.24-4.48.35-6.76l0-.68c.75-15.26,1.27-31.28,1.59-48.46,0-1,0-2,.05-3,0-1.49.05-3,.07-4.53s.05-3.13.07-4.73l4.72-.07L471,297l3-.06c17.11-.32,33.07-.84,48.27-1.58l.84,0,6.72-.35,1.3-.07h0c0,1.58-.12,3.14-.18,4.71C530.94,300.83,530.9,302.06,530.84,303.28Zm-90.06,64c-11.94.29-23.92.29-35.85,0-1.53,0-3.05-.12-4.58-.17-4.34-.13-8.67-.27-13-.48-.09-1.61-.17-3.24-.26-4.87-.05-1-.11-2-.16-3-.08-1.69-.16-3.4-.23-5.11,0-1.06-.11-2.12-.15-3.19-.08-1.8-.15-3.63-.22-5.45,0-1-.09-2-.13-3-.08-2.09-.15-4.21-.22-6.32l-.12-3.74c-.08-2.44-.15-4.89-.22-7.38,0-.73,0-1.48,0-2.21-.06-2.26-.12-4.53-.17-6.83,0-.88,0-1.79-.05-2.68,0-2.17-.09-4.34-.12-6.56,0-1,0-2-.05-2.94,0-2.05-.06-4.1-.09-6.18h.68q18.45.19,37.05.2c12.38,0,24.76-.07,37-.2h.68c0,2.08-.05,4.13-.09,6.18,0,1,0,2,0,2.94,0,2-.07,4-.11,6.05,0,1.07,0,2.16-.07,3.22,0,2.19-.1,4.35-.15,6.5,0,.83,0,1.68-.07,2.51-.06,2.49-.14,4.94-.21,7.38,0,1.25-.08,2.5-.13,3.74-.07,2.11-.14,4.23-.22,6.32,0,1.13-.09,2.24-.13,3.37-.07,1.69-.14,3.39-.21,5,0,1.2-.11,2.37-.16,3.55-.08,1.6-.15,3.2-.23,4.78l-.15,3c-.09,1.63-.17,3.26-.26,4.87-4.32.21-8.66.35-13,.48C443.83,367.12,442.31,367.2,440.78,367.24Zm-63-1c-1.84-.08-3.65-.19-5.48-.28l-3.13-.17c-2.23-.13-4.44-.28-6.65-.43-.6,0-1.22-.08-1.82-.12q-12.74-.93-24.89-2.34l-1.41-.18q-3.31-.39-6.59-.81l-2.33-.33c-1.76-.24-3.52-.48-5.26-.74-.18-1.21-.35-2.44-.52-3.67s-.38-2.66-.56-4c-.15-1.2-.3-2.42-.45-3.63-.18-1.45-.37-2.89-.54-4.36-.13-1.17-.25-2.36-.38-3.53-.34-3.15-.67-6.33-1-9.53-.1-1.09-.21-2.17-.31-3.27s-.18-2.33-.28-3.49c-.13-1.64-.27-3.27-.39-4.92-.08-1.14-.15-2.29-.22-3.43-.12-1.69-.24-3.38-.34-5.08-.07-1.19-.12-2.39-.19-3.58-.09-1.68-.18-3.35-.26-5-.05-1.23-.09-2.48-.14-3.72-.06-1.55-.13-3.1-.18-4.67h0l1.16.06q3.42.19,6.88.36l.59,0c15.29.75,31.34,1.27,48.56,1.59l3,.06,4.54.06,4.72.07c0,1.6,0,3.15.07,4.73s0,3,.06,4.53l.06,3c.32,17.16.84,33.16,1.58,48.4,0,.24,0,.48,0,.72.11,2.27.23,4.51.35,6.75,0,.42.05.86.07,1.28h0c-1.6-.05-3.18-.11-4.77-.18ZM266,226.34l3.07-.3.19,0,2.91-.28h.13c7.05-.67,13.66-1.2,21.45-1.73h.15l2.91-.19.58,0,2.62-.17,1.09-.07,2.36-.14,1.57-.1,1.79-.1,2.52-.15.87-.05,3.08-.18c-.2,4-.31,8-.44,12.06-.06,1.82-.15,3.63-.2,5.45-.29,11.93-.29,23.91,0,35.84.05,1.84.14,3.68.2,5.52.13,4,.24,8,.44,12-24-1.37-35.35-2.26-54.11-4.25a2.26,2.26,0,0,1,0-.26Q259.1,287,259,285c0-.31,0-.6,0-.9,0-1.11-.09-2.21-.13-3.28,0-.67,0-1.32-.07-2s0-1.4-.07-2.08,0-1.43-.06-2.15,0-1.18,0-1.76c0-.84-.05-1.65-.06-2.47,0-.43,0-.86,0-1.28,0-1.23-.05-2.44-.07-3.64h0c-.07-4.87-.07-9.55,0-14.42h0c0-1.2,0-2.41.07-3.63,0-.43,0-.86,0-1.28,0-.82,0-1.64.06-2.47,0-.58,0-1.18,0-1.77s0-1.42.06-2.15.05-1.39.08-2.08,0-1.3.06-2c0-1.07.09-2.18.13-3.29,0-.3,0-.59,0-.89.05-1.35.11-2.75.18-4.17v-.26l6.72-.7Zm48.83-13.16c.08-1.7.18-3.39.27-5.08.06-1.18.11-2.37.18-3.54.1-1.74.23-3.46.34-5.18.08-1.11.14-2.23.22-3.33.13-1.71.27-3.41.41-5.11.09-1.1.17-2.21.26-3.3.13-1.45.27-2.88.41-4.33q.41-4.29.87-8.52c.12-1.16.24-2.33.37-3.48.18-1.53.38-3.05.57-4.57.14-1.13.27-2.29.42-3.42.19-1.45.4-2.88.61-4.32.15-1.12.3-2.25.47-3.37l3.61-.5c1.35-.19,2.69-.39,4.05-.57l4.17-.52,3.83-.47c1.83-.21,3.7-.41,5.55-.6l2.56-.28c2.73-.28,5.49-.54,8.26-.78l2.09-.16q3.14-.27,6.3-.51l3.08-.2c1.81-.12,3.61-.25,5.43-.35,1.11-.07,2.24-.12,3.36-.18,1.75-.09,3.5-.19,5.26-.27,1.2-.06,2.41-.1,3.61-.14,1.59-.07,3.17-.14,4.77-.19h0l-.06,1.15c-.13,2.28-.25,4.57-.36,6.89l0,.59c-.75,15.28-1.27,31.33-1.59,48.55,0,1,0,2-.06,3,0,1.49,0,3-.06,4.54s0,3.12-.07,4.71h0l-5.29.08-3.91.06-5.95.11-3.25.06-8.16.2-.85,0-8.83.26-2.39.09-6.23.21-3.36.14c-1.7.07-3.41.13-5.08.21-1.29,0-2.55.12-3.83.18l-4.44.2-4.11.22-3.74.2h0c0-1.56.12-3.12.18-4.67C314.77,215.65,314.81,214.41,314.86,213.18Zm90.05-64c11.95-.29,23.94-.29,35.88,0,1.78.05,3.54.14,5.32.2,4.08.12,8.17.25,12.24.45.09,1.62.17,3.26.26,4.91l.15,2.94c.08,1.61.15,3.25.23,4.87.05,1.16.11,2.3.16,3.46.08,1.75.15,3.52.22,5.29,0,1,.08,2.08.12,3.14.09,2.24.17,4.52.24,6.8l.09,2.78c.09,2.6.16,5.21.23,7.86,0,.77,0,1.56.06,2.33.06,2.21.11,4.43.16,6.68,0,1,0,2.11.06,3.16,0,2,.09,4,.12,6.11,0,1,0,2,0,2.92,0,2.06.07,4.11.09,6.2h-.69c-12.29-.13-24.66-.2-37-.2h0c-12.37,0-24.74.07-37,.2h-.7c0-2.09.06-4.14.09-6.2,0-1,0-2,.05-2.92,0-2.24.08-4.43.12-6.63,0-.86,0-1.75.05-2.61.05-2.36.11-4.67.17-7,0-.68,0-1.37,0-2.05.07-2.65.15-5.26.23-7.86,0-.93.06-1.85.1-2.78.07-2.28.15-4.56.23-6.8l.12-2.8c.07-1.89.15-3.79.23-5.65,0-1.05.09-2.07.14-3.1.08-1.74.16-3.49.25-5.21,0-1,.1-2,.15-2.94.09-1.65.17-3.29.26-4.91,4.07-.2,8.15-.33,12.24-.45C401.37,149.36,403.14,149.27,404.91,149.22Zm54.63-54.38,1.08,0,3.14.16,1.22.06,2.79.16,1.23.07,2.61.16,1.12.07,2.56.17,1,.07,2.55.19.83.06,2.64.21.41,0,3,.26.29,0c3.17.29,6.32.62,9.55,1l.25,0,2.25.27,1.24.15,1.8.23,1.81.23,1.41.18,2.35.31,1.18.16,2.75.38.85.13,3,.42c.29,1.06.58,2.1.85,3.12l0,.08.82,3.09.09.34c.26,1,.52,2,.77,3a2.68,2.68,0,0,0,.07.27c.26,1,.51,2.06.75,3.07l0,.13c1,4.22,1.9,8.29,2.73,12.5,0,.13.05.27.08.4.18.92.36,1.84.53,2.78l.12.65c.16.86.32,1.72.48,2.6l.15.87c.14.82.29,1.65.43,2.49.06.36.12.73.19,1.09.13.79.26,1.57.39,2.39.08.49.17,1,.25,1.53.11.69.22,1.38.34,2.1s.19,1.26.29,1.9.2,1.27.3,1.93.24,1.57.36,2.37c.08.54.16,1.07.24,1.63.15,1,.3,2,.45,3,0,.33.09.66.14,1-1.35-.2-2.74-.38-4.11-.57l-3.35-.47c-1.53-.2-3.09-.38-4.64-.57-1.12-.14-2.23-.29-3.36-.42-1.64-.19-3.3-.36-5-.54l-3.17-.34c-1.78-.18-3.57-.34-5.36-.5l-2.92-.28c-2.3-.2-4.63-.38-6.95-.55l-3.18-.23q-3.36-.24-6.75-.44l-3.21-.17c-1.8-.1-3.59-.2-5.41-.28l-3.48-.14c-1.65-.06-3.3-.14-5-.19-.93-16.28-1.64-26.76-2.61-37.65,0-.16,0-.33,0-.5-.07-.81-.15-1.64-.22-2.46l-.06-.58c-.08-.9-.17-1.81-.26-2.73l0-.34c-.1-1-.19-1.93-.29-2.91l0-.26q-.31-3.19-.69-6.67l1,0Zm67,68.42c.21,1.62.4,3.25.6,4.88.13,1.05.27,2.08.39,3.13.2,1.76.39,3.54.58,5.31.1.95.21,1.88.3,2.83.28,2.72.54,5.47.78,8.23.08.94.15,1.89.22,2.83.15,1.85.31,3.7.45,5.57l.21,3.28c.12,1.74.24,3.48.35,5.23l.18,3.51c.09,1.71.19,3.4.26,5.12.06,1.22.1,2.45.15,3.68.06,1.57.13,3.13.18,4.71h0c-1.27-.08-2.56-.14-3.85-.21l-4-.21-4.53-.21-3.74-.17c-1.69-.08-3.42-.14-5.13-.21l-3.31-.14-6.28-.22-2.34-.08-8.83-.26-.82,0-8.19-.2-3.25-.06-6-.11-3.9-.06-5.29-.08h0c0-1.59-.05-3.14-.07-4.71s0-3.05-.07-4.54c0-1,0-2-.05-3-.32-17.24-.84-33.31-1.59-48.61l0-.56c-.11-2.32-.24-4.61-.36-6.89l-.06-1.15h0c1.6.05,3.18.12,4.77.19,1.2,0,2.41.08,3.6.14,1.77.08,3.52.18,5.27.27l3.36.18c1.81.1,3.61.23,5.42.35l3.09.2,6.25.5,2.14.17c2.77.24,5.53.5,8.26.78l2.4.26c1.91.2,3.82.4,5.72.62,1.21.14,2.4.3,3.6.45,1.47.18,2.94.35,4.4.54l3.71.52,3.94.55c.23,1.53.43,3.09.65,4.64C526.24,161.27,526.38,162.25,526.52,163.26ZM536.25,223l3,.18,1.34.08,2.09.13,1.85.11,1.57.1,2.15.14,1.11.07,2.39.16.61,0c7.58.52,14.07,1,21,1.69l.18,0,2.91.28.19,0,3.07.3h.1l6.72.7c0,1,.09,2,.13,3,0,.42,0,.85,0,1.25,0,.75.06,1.46.09,2.19s.06,1.51.08,2.23c0,.41,0,.8,0,1.21,0,1,.07,2,.1,2.91,0,.19,0,.38,0,.57.41,12.77.41,22.93,0,35.69,0,.2,0,.38,0,.58,0,1-.07,1.92-.1,2.9,0,.41,0,.8,0,1.22,0,.72-.05,1.48-.08,2.22s-.06,1.45-.09,2.2c0,.4,0,.83,0,1.24,0,1-.09,2-.13,3-18.81,2-30.18,2.88-54.11,4.25.18-3.77.29-7.55.41-11.32.07-2.08.18-4.14.23-6.22.12-5.14.17-10.28.18-15.43,0-1.63,0-3.26,0-4.89,0-5.16-.07-10.32-.19-15.46,0-2.06-.16-4.1-.23-6.15-.12-3.8-.23-7.6-.41-11.39L536,223Zm-12.89,71.12-5.31.24-3,.14c-1.93.09-3.9.16-5.86.24l-2.59.11-7.27.25-1.85.06-8.33.25-1.92.05-7.12.17-2.55.05-6.69.13-2.9,0-6.22.09c0-.24,0-.48,0-.72.25-24.57.25-49.45,0-74,0-.23,0-.47,0-.71l6.21.09,2.92,0,6.15.12,3.11.06L487,221l2.18.06c2.81.07,5.59.16,8.34.24l1.84.06,7.28.26,2.91.12,5.51.22,3.37.16,5,.23,2.93.15c1.65.09,3.3.17,4.92.27.24,4.91.41,9.85.55,14.79,0,.91.08,1.81.1,2.72.29,12,.29,24,0,36,0,.91-.07,1.81-.1,2.72-.14,4.94-.31,9.87-.55,14.79l-4.94.26Zm-100.51,2h0c-12.35,0-24.7-.06-37-.19h-.77c0-.26,0-.53,0-.79-.12-12.26-.19-24.61-.19-36.95h0q0-18.53.19-37c0-.26,0-.52,0-.78h.38c12.22-.13,24.52-.19,36.83-.2h1.05c12.31,0,24.62.07,36.85.2h.38v.78q.19,18.4.2,37h0c0,12.34-.07,24.69-.2,36.95V296h-.77C447.55,296.11,435.2,296.17,422.85,296.17Zm-48-.34-6.62-.13-2.61-.05-7-.17-2.05-.05-7.86-.23-2.8-.09-6.79-.24-2.82-.12-5.63-.23-3.09-.14-5.21-.24-3-.16-4.91-.26c-.17-3.51-.27-7-.39-10.57-.08-2.35-.2-4.69-.25-7-.12-4.89-.16-9.8-.18-14.7q0-3.18,0-6.36c0-4.91.06-9.81.18-14.71,0-2.35.17-4.69.25-7,.12-3.53.22-7.06.39-10.57,1.62-.1,3.26-.18,4.9-.26l3-.16,4.84-.23,3.48-.16,5.18-.21,3.25-.13,6.56-.23,3.27-.11,7.61-.22L359,221l6.55-.16,3.21-.06,6.06-.12,2.94,0,6.18-.09v.71c-.26,24.58-.26,49.46,0,74V296l-6.19-.09ZM624.6,231.29l-.7-.14-1.06-.21-1-.2-1-.2-1-.19-1-.18-1-.18-1-.18-1-.17-1-.17-1-.16-1-.17-1-.15-1.06-.16-1-.16-1.06-.15-1.12-.16-1-.15-1.33-.17-.93-.13-1.85-.23-.54-.07-2.54-.31-.28,0-2.47-.29h-.07l-2.84-.32h-.07l-5.92-.64c0-.43,0-.83-.06-1.26,0-1-.09-2.08-.14-3.07,0-.7-.07-1.37-.1-2.06s-.08-1.44-.11-2.14c-.05-.93-.1-1.82-.15-2.71,0-.44,0-.89-.07-1.32-.06-1-.11-1.94-.17-2.89l-.06-1c-.32-5-.66-9.65-1.08-14.18,0-.16,0-.31,0-.47l-.27-2.91c0-.2-.05-.41-.07-.61-.09-.92-.19-1.84-.29-2.77,0-.27-.06-.53-.08-.8-.1-.86-.2-1.72-.3-2.6l-.12-1.06c-.1-.8-.19-1.61-.29-2.42-.05-.36-.09-.74-.14-1.1-.1-.83-.21-1.67-.32-2.53,0-.33-.09-.68-.13-1-.12-.89-.24-1.78-.36-2.7,0-.38-.11-.78-.16-1.16-.12-.9-.25-1.81-.38-2.74-.06-.42-.12-.86-.18-1.29-.11-.73-.21-1.45-.31-2.2l.67.19,2.32.65,1.18.34,1.86.54,1.31.38,1.56.47,1.39.42,1.32.4,1.42.46,1.14.36,1.38.46,1.06.35,1.33.47,1,.34,1.36.5.87.32,1.51.58.64.25,1.58.64.54.23c1.4.58,2.78,1.18,4.17,1.82l.55.26,1.53.72.74.35,1.39.68.8.41,1.39.7c.27.14.56.28.83.43l1.27.65c.41,3.08.77,5.91,1.11,8.59C623.15,204,623.87,213.83,624.6,231.29ZM449.79,460s0-.06,0-.09c.13-.65.25-1.28.38-1.9,0-.1,0-.2.05-.29.12-.59.23-1.17.34-1.74,0-.1,0-.21.05-.31.11-.56.21-1.12.32-1.68l.06-.34c.1-.54.19-1.08.29-1.62,0-.14,0-.27.07-.41.08-.51.17-1,.26-1.54,0-.17.05-.33.08-.5l.24-1.49c0-.17.05-.34.08-.51l.24-1.52c0-.16,0-.32.07-.48.08-.52.15-1.05.23-1.6,0-.18.05-.36.08-.54.07-.54.15-1.07.22-1.62,0-.12,0-.25.05-.36.68-5,1.35-10.83,2.16-18.43l1.42-.07,2.9-.14,1.94-.09,2.3-.12,2.6-.14,1.4-.08,3.72-.22h.11c3.8-.24,7.35-.5,10.8-.79h.09c1.12-.1,2.22-.19,3.32-.3l.4,0,3-.29.6-.06,2.77-.29.84-.09,2.59-.29.83-.1,2.67-.32.93-.12,2.64-.33,1.14-.15,2.59-.35,1.24-.17,2.65-.36,1.35-.19,2.16-.31c-.2.72-.4,1.44-.6,2.13-.05.17-.09.35-.14.51-.25.89-.49,1.73-.74,2.57-.05.2-.11.41-.17.6-.23.8-.46,1.57-.68,2.32-.07.21-.13.42-.19.63l-.68,2.23c-.05.17-.1.34-.16.5l-.68,2.16-.14.44c-.24.72-.47,1.43-.71,2.12,0,.11-.07.22-.1.32-.26.75-.51,1.48-.77,2.2l0,.13a143,143,0,0,1-8.57,19.24l-5.54.73C478.46,458.42,468.48,459.2,449.79,460ZM620.33,335.06c-.68.36-1.35.71-2,1h0l-2,1-.17.09-2,1-.13.06c-2.83,1.36-5.56,2.55-8.42,3.69l-.44.17-1.73.67-.51.19-1.73.63-.58.2-1.75.61-.66.22-1.79.6-.67.21-1.93.61-.65.2-2.11.65-.63.18-2.31.69-.64.18-2.53.73-.52.14-2.12.59c.1-.74.2-1.46.31-2.18l.18-1.31c.13-.93.26-1.84.38-2.74,0-.38.11-.77.16-1.14.12-.92.24-1.82.36-2.71,0-.34.09-.69.13-1,.11-.85.21-1.68.32-2.51,0-.37.09-.74.14-1.11.1-.81.19-1.6.28-2.4,0-.36.09-.73.13-1.09.1-.85.2-1.7.29-2.54l.09-.86c.1-.9.19-1.8.29-2.7,0-.22,0-.45.07-.68l.27-2.83c0-.18,0-.36,0-.55.42-4.52.76-9.13,1.08-14.17,0-.36,0-.75.07-1.12,0-.9.11-1.8.16-2.73,0-.47,0-.95.08-1.42,0-.87.09-1.72.14-2.62,0-.72.07-1.48.11-2.22s.07-1.3.1-2c.05-1,.09-2.05.14-3.09l.06-1.24c8.76-.94,15.13-1.69,20.67-2.47l.29,0,1.65-.25.44-.06,1.58-.25.44-.06,1.58-.26.4-.07,1.65-.28.3-.05,1.63-.29.35-.06,1.76-.33.19,0,1.88-.37.13,0,2-.41c-.68,16.29-1.35,26-2.83,38.53C621.36,327.19,620.88,330.91,620.33,335.06Zm22.29-98.79-.73-.34-1.18-.5-.74-.29c-.46-.17-1-.34-1.44-.5l-.66-.22c-.75-.23-1.53-.46-2.39-.68l-1.35-.36h0l-1.45-.35-1.52-.35-.88-.2-.79-.17-.94-.2-.91-.2-1.45-.29-.4-.09C625,213,624.26,203,622.37,188.08c-.06-.49-.12-1-.19-1.5s-.11-.9-.17-1.37c-.13-1-.27-2.08-.42-3.15l.6.31.88.48,1.12.61.72.4,1.11.63.6.34,1.07.63.49.29,1.12.69.31.19c.92.59,1.76,1.15,2.54,1.7l.18.13c.29.2.57.41.84.61a216.92,216.92,0,0,1,10,47.45Zm-10.07-49.08c-.22-.16-.46-.32-.69-.47l-.32-.22-1.27-.82-.34-.21-1-.65-.52-.31-1-.59-.59-.34-1.11-.63-.58-.33-1.53-.83-.3-.17c-.59-.32-1.2-.65-1.85-1-.15-1.11-.3-2.19-.46-3.24l-.06-.35c-.13-.89-.27-1.77-.41-2.61-2.36-13.89-5.66-22.26-10.69-34.83A218.71,218.71,0,0,1,632.55,187.19Zm-27.1-54.14-.41-.24-.38-.23-1.75-1-1.75-1-.39-.23-2.07-1.16-.08-.05c-.7-.39-1.39-.77-2.09-1.14l-.08,0-2-1.07-.15-.08-2-1-.25-.12-1.86-.93-.42-.2-1.74-.83-.64-.3-1.59-.73-.89-.4-1.43-.64-1.22-.53-1.21-.52-1.7-.71-.85-.36-2.52-1-.19-.08c-2.86-1.15-6-2.36-9.42-3.67-1.55-4.08-3-7.66-4.29-10.93l-.45-1.1c-.17-.41-.34-.81-.5-1.21s-.43-1-.64-1.5c-.12-.3-.25-.59-.38-.89-.25-.57-.49-1.14-.74-1.7l-.29-.66c-.27-.61-.55-1.22-.82-1.81l-.24-.54-.87-1.85c-.07-.15-.14-.29-.2-.43-.31-.64-.62-1.28-.93-1.9a3.78,3.78,0,0,0-.17-.35c-.32-.66-.65-1.31-1-2,0-.09-.08-.17-.13-.26-.35-.68-.71-1.36-1.07-2l-.09-.17c-.38-.72-.77-1.44-1.17-2.17l0,0c-1.33-2.42-2.75-4.88-4.33-7.53A220.79,220.79,0,0,1,605.45,133.05Zm-64-61.75c-5.19-2.07-9.66-3.85-14.1-5.39l-.34-.11-1.47-.5-.91-.3-.82-.26a122.17,122.17,0,0,0-16.54-4l-.61-.11c-.49-.09-1-.16-1.5-.24l-1.67-.27-.66-.1-2.43-.35c-.12-.22-.23-.42-.34-.64l-1.05-1.94-.56-1c-.14-.25-.27-.5-.41-.74l-.56-1c-.12-.21-.24-.42-.37-.63s-.38-.66-.57-1l-.31-.53-.66-1.07c-.07-.1-.13-.21-.19-.3-.28-.45-.56-.89-.84-1.3l-.12-.19-.56-.82A218.44,218.44,0,0,1,541.49,71.3Zm-98.7-34.2s0,0,0,0a2.54,2.54,0,0,0,.21.39l.08.13c.42.76.78,1.5,1.1,2.24.08.16.15.35.22.53l.21.52c.08.21.17.42.25.66a50.4,50.4,0,0,1,1.69,5.64c.11.46.23.95.37,1.55,0,.08,0,.16.07.27.18.7.34,1.47.51,2.27.06.24.11.48.17.73l.57-.12-.53.29h0c0,.16.07.34.1.5.17.81.35,1.63.53,2.53h0c-6.26-.25-11.62-.43-16.63-.52-6.09-.12-11.67-.12-17.76,0-5,.09-10.37.27-16.61.52l0-.19c.09-.47.19-.94.28-1.39.05-.21.09-.41.13-.62s.15-.7.22-1,.11-.52.17-.77.11-.5.16-.74.14-.62.21-.92l.12-.53c.08-.33.15-.65.23-1l.09-.38c.09-.36.17-.7.26-1,0-.06,0-.13.05-.2a35.59,35.59,0,0,1,3.37-9l0,0,.23-.37C417.83,36.8,427.9,36.8,442.79,37.1ZM401.1,38c-.21.41-.41.82-.6,1.26,0,0,0,.07-.05.1q-.29.66-.57,1.38l0,.09c-.19.48-.37,1-.55,1.54l-.06.2c-.18.53-.35,1.1-.53,1.7a1.82,1.82,0,0,1-.07.25c-.17.62-.35,1.27-.52,2a2.17,2.17,0,0,0-.07.24c-.18.74-.37,1.51-.56,2.35v0c-.41,1.76-.83,3.76-1.3,6.08l0,.09h0c-7.59.31-13.75.62-19.41,1l-.34,0-2.32.17-.56,0-2.52.2-.26,0L368,57h0c-2.78.26-5.57.55-8.48.88h0l-2.65.31-.47,0-2.14.26-1.29.16-1.18.15-5.06.65.33-.61.48-.89c.19-.36.38-.69.56-1l.47-.85.52-.92.46-.79c.16-.29.32-.55.48-.82l.44-.74.47-.76.41-.66.49-.75.56-.84c.2-.3.41-.6.61-.88l.34-.47c.14-.19.28-.39.43-.57a217.72,217.72,0,0,1,47.42-10Zm-49.28,10.5-.46.68-.22.32c-.27.4-.54.82-.82,1.26-.07.11-.14.23-.22.34-.2.34-.42.67-.63,1l-.34.57-.56.94-.37.65-.58,1-.39.69-.7,1.29c-.1.18-.2.35-.3.54-.31.59-.64,1.19-1,1.82-2.05.28-4,.58-5.8.88l-.35.06-2.17.39-.8.14-1.62.33-1.16.23-1.23.28-1.84.41c-.7.17-1.41.34-2.09.52l-.29.08c-8.08,2.1-14.85,4.78-23.68,8.31A218.82,218.82,0,0,1,351.82,48.53ZM297.66,75.65c-1.06,1.78-2.05,3.48-3,5.13-.08.13-.15.26-.22.4-.34.59-.66,1.17-1,1.75l-.42.77-.76,1.41-.47.89c-.23.44-.47.88-.69,1.32l-.45.88c-.24.46-.48.93-.71,1.4l-.39.78c-.25.52-.51,1.05-.76,1.58l-.3.63-.87,1.86-.18.39c-.34.75-.69,1.51-1,2.28l0,0c-2.19,5-4.43,10.53-7.09,17.53-7,2.66-12.54,4.89-17.5,7.07l-.13.06-2.2,1-.44.21-1.83.85-.63.3L255,125l-.74.36-1.46.74-.8.41-1.45.76-.74.39-1.62.88-.54.29L245.57,130l-.07,0c-1.69,1-3.41,2-5.23,3A220.22,220.22,0,0,1,297.66,75.65ZM235.92,139.6c-4.29,10.75-7.33,18.44-9.6,29.15,0,.18-.07.37-.11.55-.15.73-.3,1.47-.45,2.24,0,.14,0,.29-.07.43-.16.82-.31,1.66-.46,2.53a.5.5,0,0,1,0,.12c-.32,1.9-.62,3.89-.91,6l-1.82,1-.58.31-1.24.68-.74.42-.95.54-.71.4-.86.52-.64.38c-.31.18-.6.37-.89.55l-.48.3c-.42.27-.83.53-1.22.8l-.39.26-.63.43A219.36,219.36,0,0,1,235.92,139.6Zm-23.4,49.5.58-.42.46-.35,1-.65.74-.5.77-.5.66-.41.76-.47.74-.44.82-.48.79-.46.93-.52.84-.47,1-.56.9-.49.61-.32c-.24,1.84-.47,3.58-.68,5.28,0,.27-.07.55-.11.82-.07.57-.13,1.13-.2,1.68s-.15,1.18-.22,1.76c0,.31-.07.62-.11.93-.08.73-.17,1.45-.25,2.16,0,.21,0,.42-.07.63-.08.79-.17,1.56-.25,2.33,0,.16,0,.32-.05.48-.08.78-.17,1.56-.24,2.33,0,.23-.05.46-.07.69-.07.69-.13,1.38-.2,2.07l-.09,1.1-.15,1.64c0,.57-.09,1.15-.14,1.72,0,.36-.06.71-.08,1.06-.07.81-.13,1.62-.18,2.44l0,.41c-.14,1.95-.27,3.95-.39,6v.08l-.06,1.11c-.22,3.84-.41,8-.61,12.72h-.08c-2.25.46-4.21.88-5.93,1.27l-.25.06c-.77.17-1.49.35-2.17.52l-.44.11c-.61.16-1.2.31-1.75.47l-.51.14-1.45.45-.52.17-1.05.37-.67.26c-.28.1-.55.22-.81.33l-.67.29-.8.38-.3.14A218.31,218.31,0,0,1,212.52,189.1ZM204,280.64l1.78.71a71.55,71.55,0,0,0,9.46,2.58c.69.16,1.42.32,2.2.48l.83.18,1.62.33h0c.21,4.93.41,9.26.64,13.25l0,.53c0,.23,0,.45,0,.68,0,.83.09,1.66.15,2.47,0,.11,0,.22,0,.32.05.89.11,1.77.17,2.63,0,.33.05.66.07,1,0,.63.09,1.25.14,1.87s.09,1.06.13,1.59l.09,1.18c.07.72.13,1.44.2,2.16,0,.19,0,.38,0,.57.07.86.16,1.72.24,2.58,0,.05,0,.11,0,.16q.27,2.78.6,5.65v.07c.1.9.2,1.81.31,2.74,0,.11,0,.21,0,.32.09.77.19,1.56.29,2.36,0,.34.08.68.13,1,.06.49.12,1,.18,1.5.2,1.56.41,3.15.63,4.83l-1-.51-.3-.16-1.55-.85-.41-.23-1.31-.73-.45-.26L218,331l-.43-.26c-.38-.22-.74-.45-1.09-.67l-.35-.21c-.44-.28-.85-.54-1.25-.81l-.07,0-1.22-.83-.31-.23c-.25-.17-.49-.35-.73-.53a218.63,218.63,0,0,1-10-47.46C203,280.18,203.52,280.41,204,280.64Zm9.11,48.64.84.57.16.11,1.3.83.32.2c.34.22.69.43,1.06.65l.53.32,1,.57.63.37,1,.56.73.41,1,.55,1.94,1.05.65.35c.12.91.25,1.79.38,2.66,0,.13,0,.27.06.39.11.73.22,1.42.34,2.11,0,.35.11.71.17,1s.14.81.21,1.21c.79,4.43,1.68,8.33,2.7,12l0,.08c.13.47.27.94.41,1.42.1.33.19.66.29,1s.17.54.25.81c.17.53.33,1.06.51,1.59a2.25,2.25,0,0,0,.08.24c1.72,5.26,3.75,10.39,6.19,16.51A218.79,218.79,0,0,1,213.15,329.28Zm27.13,54.14c3.48,2.08,6.65,3.89,9.79,5.56l.07,0,2.11,1.1.24.13,2,1,.37.19,1.85.89.5.24,1.76.83.64.29c.54.25,1.09.5,1.65.74l.84.37,1.51.66,1.06.46,1.31.55,1.4.58.85.35c3.32,1.36,7,2.79,11.13,4.37,1.76,4.62,3.33,8.61,4.82,12.22l.16.37.91,2.18.37.85.69,1.59c.16.37.33.74.49,1.1l.55,1.23.6,1.3c.14.31.29.62.44.93L289,425c.12.25.23.49.35.73l.78,1.57c.09.19.19.37.28.56l.86,1.68c.08.14.15.28.22.42l1,1.78.2.37c.32.59.64,1.19,1,1.79l.27.48.94,1.67c.18.31.36.64.55,1s.45.79.69,1.2c.5.86,1,1.73,1.55,2.63A220.18,220.18,0,0,1,240.28,383.42Zm64,61.75c12.57,5,20.94,8.32,34.85,10.68l.79.12,2.23.36c.84.13,1.73.25,2.62.37l.52.08c.34.64.66,1.25,1,1.84.07.13.14.26.22.39.26.49.52,1,.78,1.42.12.23.24.44.36.66l.59,1,.37.65.55.92.35.6.6,1,.25.41c.28.44.55.86.82,1.26l.17.25c.17.26.34.52.51.76A218.38,218.38,0,0,1,304.25,445.17Zm49.45,23.38-.62-.84-.12-.18c-.55-.78-1.11-1.62-1.69-2.53l-.27-.44-.61-1c-.12-.2-.24-.42-.37-.63s-.36-.6-.54-.92l-.42-.74-.55-1-.46-.83-.56-1-.5-.92-.31-.58,1.67.22.95.12a456.78,456.78,0,0,0,46.86,3.85c.11.56.22,1.11.33,1.63.25,1.17.49,2.26.7,3.27.36,1.64.71,3.08,1,4.34s.65,2.36,1,3.33c.1.34.22.68.33,1s.22.64.33.9.22.59.34.88c.27.65.56,1.27.86,1.88a1.63,1.63,0,0,1,.09.19A218.91,218.91,0,0,1,353.7,468.55Zm49.24,10.8-.25-.41a27.15,27.15,0,0,1-1.42-2.92c-.11-.26-.22-.53-.32-.84a8.52,8.52,0,0,1-.32-.87c-.11-.28-.22-.59-.32-.92-.63-1.92-1.26-4.33-2-7.58-.21-1-.45-2.1-.7-3.26-.09-.43-.18-.89-.28-1.34,4.9.19,9.24.34,13.3.44h0l1.83,0,1.53,0h0c3,.06,5.92.09,8.82.09,3.41,0,6.84,0,10.45-.12l1.69,0h.15c4-.1,8.35-.25,13.21-.44l-.06.32c-.09.44-.18.87-.27,1.28,0,.22-.09.43-.14.64s-.15.71-.22,1l-.15.71c-.07.29-.13.58-.2.86s-.11.5-.17.75-.11.48-.16.71-.12.52-.19.77-.09.39-.13.57-.14.53-.2.79l-.12.46c-.07.28-.15.55-.22.82l-.09.32c-.08.3-.16.58-.24.86l-.06.21c-.1.31-.19.61-.28.9l0,.09a29.26,29.26,0,0,1-2.4,5.61l0,.08-.21.35c-7.46.17-13.61.25-19.92.25S410.4,479.52,402.94,479.35Zm41.65-.88q.33-.64.63-1.32l0,0c.2-.46.4-.93.59-1.43l0-.05c.18-.48.36-1,.54-1.52,0-.07.05-.14.07-.21.17-.51.34-1.06.5-1.64,0-.11.07-.22.1-.33.16-.58.33-1.19.5-1.84,0-.14.07-.28.1-.42.17-.67.35-1.38.52-2.14l.09-.38.54-2.42c0-.13.06-.26.08-.39.19-.87.39-1.8.59-2.78l.09-.4c17.19-.72,27-1.42,40.42-3h.07l3-.37,1-.12,2.06-.26,2.81-.37.15,0-.39.72c-.12.24-.25.47-.38.7q-.31.6-.63,1.17c-.14.24-.28.5-.41.74s-.39.68-.57,1-.27.47-.4.7l-.56.94c-.12.2-.24.42-.36.61l-.58.95-.3.48c-.24.39-.48.76-.72,1.12l-.12.19c-.28.42-.55.82-.82,1.2l-.33.46-.43.6a217.25,217.25,0,0,1-47.45,10S444.58,478.49,444.59,478.47Zm49.31-10.54.44-.65.26-.39c.26-.39.52-.8.79-1.22l.35-.56.49-.81c.14-.22.27-.45.41-.68l.48-.82.43-.74.5-.9.45-.78c.19-.35.38-.71.58-1.06l.52-1c.28-.51.55-1,.84-1.57,1.1-.15,2.18-.3,3.22-.46l.57-.09,2.44-.39,2.55-.46.3-.06c12.23-2.31,20.28-5.5,32-10.17A218.36,218.36,0,0,1,493.9,467.93ZM548,440.85c.37-.62.73-1.22,1.08-1.82.13-.23.27-.45.4-.67l.82-1.41.54-.95q.36-.62.69-1.23c.2-.35.41-.71.6-1.07l.6-1.09c.21-.39.43-.78.63-1.16l.55-1,.62-1.18.53-1c.2-.39.4-.79.59-1.18s.35-.7.53-1.06.37-.76.56-1.15l.54-1.14c.17-.37.35-.73.52-1.1s.38-.84.58-1.26l.45-1c.21-.48.43-1,.64-1.45.12-.26.23-.53.35-.79l.77-1.79c0-.11.09-.23.14-.34,1.74-4.11,3.56-8.7,5.64-14.17,6.56-2.5,11.87-4.62,16.58-6.68l.4-.17,1.77-.79.7-.31,1.49-.69.89-.41,1.3-.62,1-.49,1.16-.58,1.11-.56,1.06-.54,1.21-.63,1-.52,1.3-.7.9-.49,1.42-.8.81-.45,1.62-.94.66-.38,2-1.18.33-.2.37-.22A221.52,221.52,0,0,1,548,440.85Zm61.77-64c4.67-11.67,7.85-19.71,10.16-31.92.1-.52.2-1.07.29-1.61s.15-.81.22-1.23c.34-2,.65-4.05.95-6.27h0l1.8-1,.46-.25,1.42-.78.49-.27,1.24-.7.46-.27q.62-.34,1.17-.69l.37-.21,1.29-.8.11-.06c.83-.53,1.61-1,2.33-1.54A217.8,217.8,0,0,1,609.78,376.84Zm23.4-49.44-.52.37-.55.4-.75.51-1,.65-.74.47-.68.42-.75.46-.72.43-.84.49-.77.44-.94.53-.79.44-1.11.61-.76.41-.68.36c.28-2.17.55-4.23.8-6.2.1-.83.2-1.65.3-2.45,0-.14,0-.28,0-.41,1.61-13.34,2.31-23.2,3-40.41l1.3-.26.34-.07c1.16-.26,2.25-.49,3.26-.7l2.25-.52.9-.23,1.12-.28.86-.23,1-.27.77-.23.86-.27.68-.22.81-.29.6-.23.77-.31.53-.23.74-.34L643,280l.13-.06A217.48,217.48,0,0,1,633.18,327.4Z" transform="translate(-200.31 -35.71)"/><path class="cls-81" d="M314.49,293.72s74.7,6.87,154.12,5.55,142.06-11.63,142.06-11.63S458.23,302.3,314.49,293.72Z" transform="translate(-200.31 -35.71)"/><path class="cls-82" d="M291.89,357.4s82.43,16.15,167,12.62,134.19-23.75,134.19-23.75S474.35,386,291.89,357.4Z" transform="translate(-200.31 -35.71)"/><path class="cls-83" d="M328.7,100.47s-34.71,115.11-9,260.87C319.74,361.34,303.08,234.84,328.7,100.47Z" transform="translate(-200.31 -35.71)"/><path class="cls-84" d="M514.4,100.08s37.2,101.76,12.26,260.57C526.66,360.65,545.62,228.75,514.4,100.08Z" transform="translate(-200.31 -35.71)"/><path class="cls-85" d="M319.74,155.12s113.35-18.68,206.22,0C526,155.12,450.74,143.5,319.74,155.12Z" transform="translate(-200.31 -35.71)"/><path class="cls-86" d="M298.36,442.67s48.32,21.63,131.2,21.63c82.3,0,114.73-21.52,114.73-21.52S430.37,483.26,298.36,442.67Z" transform="translate(-200.31 -35.71)"/><g class="cls-87"><path class="cls-88" d="M490.24,290.58c-25.76-5.14,10-36.1,23.82-43.35s14,25.69,7.5,36.49S490.24,290.58,490.24,290.58Z" transform="translate(-200.31 -35.71)"/><path class="cls-88" d="M468.35,346.27c-1-10.52,12.82-6.86,21.89,3.16s-12.56,9.36-18.44,9S468.35,346.27,468.35,346.27Z" transform="translate(-200.31 -35.71)"/><path class="cls-88" d="M583.1,343.2c1.39-10.9,17.19-31.74,26.68-36s13,16.42,10.35,23.56S583.1,343.2,583.1,343.2Z" transform="translate(-200.31 -35.71)"/><path class="cls-88" d="M448.36,230.36c-13.89-5.16-35.43-4.9-46.18,11.06s9.57,18.87,32.31,22.74S453.74,232.37,448.36,230.36Z" transform="translate(-200.31 -35.71)"/><path class="cls-88" d="M468,220.59s2.2,22.77,12.17,28.09,43.22-26.36,43.22-26.36Z" transform="translate(-200.31 -35.71)"/><path class="cls-88" d="M320.43,304.31c-8.14,5.55,9.81,18.46,21.18,5.32S326.89,299.9,320.43,304.31Z" transform="translate(-200.31 -35.71)"/><path class="cls-88" d="M230.83,296.17c-8.43,14.86-4.42,22.28,7.47,33.11s17.3-15.78,13.87-25S233.67,291.18,230.83,296.17Z" transform="translate(-200.31 -35.71)"/><path class="cls-88" d="M222.13,282.54c-.49-16.45,26.2,3.46,31.05,5.1S235,287.86,222.13,282.54Z" transform="translate(-200.31 -35.71)"/><path class="cls-88" d="M401.15,453.48c-8.95-21.5,20.12-20.5,34.31-21.14s5.47,13-9.67,21.14S401.15,453.48,401.15,453.48Z" transform="translate(-200.31 -35.71)"/></g><path class="cls-89" d="M616.54,272.25c-5.11,11.34-4.83,24.13,2.91,9.81S619.45,265.82,616.54,272.25Z" transform="translate(-200.31 -35.71)"/><path class="cls-89" d="M541.56,337.85c-9.71,14.85,12.05,7.5,18.28-12.21S556.46,315.05,541.56,337.85Z" transform="translate(-200.31 -35.71)"/><path class="cls-90" d="M275.7,366.73c-6.07.33.75,21.87,15.23,29.13S297.32,365.56,275.7,366.73Z" transform="translate(-200.31 -35.71)"/><path class="cls-90" d="M253.84,181c-10.91,2.35-31.77,52.43-29.33,50.79s27.67-6.54,29.33-12.49S253.84,181,253.84,181Z" transform="translate(-200.31 -35.71)"/><path class="cls-88" d="M267.88,164.61c-5.32,1.61-7.56,41.43-7.78,45.3s23.78,5.27,34.75-.64,17.84-49.12,17.84-49.12A115.78,115.78,0,0,0,267.88,164.61Z" transform="translate(-200.31 -35.71)"/><path class="cls-91" d="M305.17,296.17c-2.7-4-40.7-3.66-43.21-2.63s4.91,47.12,5.48,52.73S315,360.05,315,360.05,317.42,314.48,305.17,296.17Z" transform="translate(-200.31 -35.71)"/><path class="cls-88" d="M291.89,416.19c-2.2-10.37,36.82,14.22,46.93,27.06s-27.07,7.85-34.66.62S291.89,416.19,291.89,416.19Z" transform="translate(-200.31 -35.71)"/><path class="cls-88" d="M401,475.18c-9.34-2.93,24.83,2.42,31.12,3.34S409,477.72,401,475.18Z" transform="translate(-200.31 -35.71)"/><path class="cls-92" d="M443.91,306.71c-33.52.07-38.58,36.17-46.57,51.77s55.25,2.39,60.82,5.35C460.32,365,456.75,306.68,443.91,306.71Z" transform="translate(-200.31 -35.71)"/><path class="cls-89" d="M552.32,356.5s21.19-4,38.91-8.44,22.85-9.85,22.85-9.85S558.89,355.33,552.32,356.5Z" transform="translate(-200.31 -35.71)"/><path class="cls-89" d="M545.88,409.75s19.26-5.06,30.85-9.46,21.49-12.71,21.49-12.71S556.72,407.39,545.88,409.75Z" transform="translate(-200.31 -35.71)"/><path class="cls-93" d="M216,186.68s38.66-28.84,119.86-34.28C335.89,152.4,269,161,216,186.68Z" transform="translate(-200.31 -35.71)"/><path class="cls-93" d="M240.27,133S304.61,91.55,392,94.57C392,94.57,311.47,95,240.27,133Z" transform="translate(-200.31 -35.71)"/><path class="cls-93" d="M259.21,227.05s-6.64-88.3,40.62-152.74C299.83,74.31,261.82,121.77,259.21,227.05Z" transform="translate(-200.31 -35.71)"/><circle class="cls-94" cx="493.9" cy="182.06" r="89.3" transform="translate(4.27 586.09) rotate(-76.89)"/><path class="cls-89" d="M390.5,56.73A424.59,424.59,0,0,1,462.79,54c39.42,1.94,61.06,10.77,61.06,10.77S463.65,51.2,390.5,56.73Z" transform="translate(-200.31 -35.71)"/><path class="cls-89" d="M402.77,93s64.55-4.6,111.63,7.1C514.4,100.08,458.12,92.8,402.77,93Z" transform="translate(-200.31 -35.71)"/><path class="cls-92" d="M288.31,104.35c-18,1,17-31.27,34.19-35.14s17.6,1,17.6,1-4.31,24.3-28.82,32.75S288.31,104.35,288.31,104.35Z" transform="translate(-200.31 -35.71)"/><path class="cls-92" d="M275,121.24c-5.19-1.83-24,1.78-34.75,20.53s-14.72,30.75-8.47,32.17,23.36-8.08,28.29-12.17S275,121.24,275,121.24Z" transform="translate(-200.31 -35.71)"/><path class="cls-95" d="M338.06,220.78s43.13-.43,44.51,0,1.75,18.06,1.75,18.06,1.19-17.47,3.1-18.25,65.93-1.27,65.93-1.27-64.4-.47-66.54-1.44S385.47,179,385.47,179s-1.61,38.22-2.58,39.18S338.06,220.78,338.06,220.78Z" transform="translate(-200.31 -35.71)"/><path class="cls-96" d="M568.48,225.22s15.24,2.45,16.69,3.63,3.19,18.25,3.19,18.25.57-17.71.68-18.74,18.2.55,18.2.55-17.47-2.72-18.44-3.69-3.51-33.81-3.51-33.81,1,32,1.09,33.81S568.48,225.22,568.48,225.22Z" transform="translate(-200.31 -35.71)"/><path class="cls-96" d="M295.41,358.05s20,3.85,22,4.55,7.16,25.06,7.16,25.06L320.43,362Z" transform="translate(-200.31 -35.71)"/><path class="cls-89" d="M388.36,391.89s-.15-20.95.82-21.37,54.18-.07,54.18-.07S389,368,386.25,367.72,386.42,370.52,388.36,391.89Z" transform="translate(-200.31 -35.71)"/></g></g></svg>