<svg id="Objects" xmlns="http://www.w3.org/2000/svg" xmlns:xlink="http://www.w3.org/1999/xlink" viewBox="0 0 332.42 119.35"><defs><style>.cls-1,.cls-11{fill:none;}.cls-2{fill:#eebb2d;}.cls-3{fill:#2a2b2a;}.cls-4{fill:#e59c0a;}.cls-5{fill:#f49211;}.cls-6{fill:#d6e3dd;}.cls-7{fill:#e27e05;}.cls-8{fill:#f7d877;}.cls-9{fill:#111;}.cls-10{fill:#e0e9ef;}.cls-11{stroke:#e27e05;stroke-miterlimit:10;}.cls-12{fill:#434443;}.cls-13{clip-path:url(#clip-path);}.cls-14{opacity:0.57;}.cls-15{fill:#fff;}.cls-16{clip-path:url(#clip-path-2);}.cls-17{opacity:0.56;}</style><clipPath id="clip-path" transform="translate(-89.29 -192.31)"><path class="cls-1" d="M301,205.8c-1.45,7.44-5.83,30.08-5.79,31.6l55.06-1.25s11-14,8.62-23.68c-.28-1.18-36.38-8.54-55-9A2.9,2.9,0,0,0,301,205.8Z"/></clipPath><clipPath id="clip-path-2" transform="translate(-89.29 -192.31)"><path class="cls-1" d="M219.88,213.3c8.05-2.81,42.2-14,64.7-10.46a1.27,1.27,0,0,1,1,1.55c-1.21,5.06-5.59,23.29-8.09,31.05a3.55,3.55,0,0,1-3.18,2.44L216.53,241l-3.38-9.15,4.37-16.2A3.87,3.87,0,0,1,219.88,213.3Z"/></clipPath></defs><title>car</title><path class="cls-2" d="M421.33,287.11s-.1,1.66-.39,4c-.67,5.58-2.36,15.06-6.17,16,0,0-7.86,1.71-9.37.78,0,0,.62-26.52-21.11-33.33-12.86-4-37.86-4.18-41.55,34.39,0,0-146.93-3.54-156.86-1.93,0,0-3.86-.7-3.06-6.71a31.12,31.12,0,0,0-.07-3.39c-.5-8.05-3.95-28-25.42-32.56,0,0-30.77-7.08-37.3,27.51-.3,1.62-.56,3.34-.73,5.14s-.34,3.69-.41,5.68c0,0-11.81,2.74-16.67-1.24,0,0-12.21.07-12.43-.58l-.5-3.41a3.63,3.63,0,0,0,.32-.39c1.09-1.32,4.38-5.65,1.54-6a65.92,65.92,0,0,1-.77-20.9c1.63-11.75,7.72-24.35,26-25.8,0,0,44.13-8.92,56.22-15.11,22-11.26,59.21-34.78,113.81-31.72,23.58,1.32,62.48.83,94,9.3a13.24,13.24,0,0,1,2.12,4.51s21.82,23.07,23.08,24.24c1.06,1,2.08,1.94,3.05,2.9a38.47,38.47,0,0,1,4,4.6c3.64,5,5,10.88,1.19,19.7C413.9,262.81,423.77,279.18,421.33,287.11Z" transform="translate(-89.29 -192.31)"/><path class="cls-3" d="M126.43,304.09l-7.54-1.39s-2.88-38.53,31.74-39.16c13.17-.25,35.4,8.56,32.31,41.62,0,0-2.94,5.62-8.95,6.51,0,0,17.11-29.65-15.91-41C146.43,266.61,123.45,275.24,126.43,304.09Z" transform="translate(-89.29 -192.31)"/><path class="cls-3" d="M347.43,308.58l-4.85.25s-2.64-34.49,30.43-37c13.13-1,35,10,32.39,36.1,0,0-.48-2.62-4.43-1.37,0,0,.2-18.28-19.37-26.2C370.18,275.71,347.93,280.15,347.43,308.58Z" transform="translate(-89.29 -192.31)"/><path class="cls-4" d="M408.69,238.51h-.07c-3.29.37-15.27-2.61-15.27-2.61-6.71-.21-14.72-.26-23.68-.19-50.08.43-130,4.77-181.86,7.89-30,1.82-50.58,3.22-50.58,3.22-15,10.72-46.75,23.42-46.75,23.42l-.1-.06c1.63-11.75,7.72-24.35,26-25.8,0,0,7.68-1.55,17.52-3.81,13.73-3.15,31.65-7.69,38.7-11.3,22-11.26,59.21-34.78,113.81-31.72,23.58,1.32,62.48.83,94,9.3a13.24,13.24,0,0,1,2.12,4.51h0c.55.57,19.12,20.22,22.58,23.73l.49.5C406.7,236.59,407.72,237.55,408.69,238.51Z" transform="translate(-89.29 -192.31)"/><path class="cls-5" d="M280.14,249.28c-.1,2.22-4.82,3.8-10.54,3.53s-10.27-2.28-10.17-4.49,4.82-3.8,10.54-3.53S280.24,247.06,280.14,249.28Z" transform="translate(-89.29 -192.31)"/><path class="cls-5" d="M362.3,245.49c-.11,2.22-4.83,3.8-10.54,3.53s-10.28-2.28-10.17-4.49,4.82-3.8,10.54-3.53S362.4,243.27,362.3,245.49Z" transform="translate(-89.29 -192.31)"/><path class="cls-5" d="M393.42,256.75a6.65,6.65,0,1,1-6.33-6.95A6.65,6.65,0,0,1,393.42,256.75Z" transform="translate(-89.29 -192.31)"/><path class="cls-2" d="M189.9,226.1s-31.89,16.33-18.6,17l16.51.56S187.12,233.76,189.9,226.1Z" transform="translate(-89.29 -192.31)"/><path class="cls-6" d="M413.9,262.81c-5.56.44-22.77-16.28-22.77-16.28-6.51-8.61,20.92-3.52,20.92-3.52l.66.1C416.35,248.16,417.72,254,413.9,262.81Z" transform="translate(-89.29 -192.31)"/><path class="cls-6" d="M219.88,213.3c8.05-2.81,42.2-14,64.7-10.46a1.27,1.27,0,0,1,1,1.55c-1.21,5.06-5.59,23.29-8.09,31.05a3.55,3.55,0,0,1-3.18,2.44L216.53,241l-3.38-9.15,4.37-16.2A3.87,3.87,0,0,1,219.88,213.3Z" transform="translate(-89.29 -192.31)"/><path class="cls-6" d="M219.88,213.3c8.05-2.81,42.2-14,64.7-10.46a1.27,1.27,0,0,1,1,1.55c-1.21,5.06-5.59,23.29-8.09,31.05a3.55,3.55,0,0,1-3.18,2.44L216.53,241l-3.38-9.15,4.37-16.2A3.87,3.87,0,0,1,219.88,213.3Z" transform="translate(-89.29 -192.31)"/><path class="cls-6" d="M219.88,213.3c8.05-2.81,42.2-14,64.7-10.46a1.27,1.27,0,0,1,1,1.55c-1.21,5.06-5.59,23.29-8.09,31.05a3.55,3.55,0,0,1-3.18,2.44L216.53,241l-3.38-9.15,4.37-16.2A3.87,3.87,0,0,1,219.88,213.3Z" transform="translate(-89.29 -192.31)"/><path class="cls-6" d="M219.88,213.3c8.05-2.81,42.2-14,64.7-10.46a1.27,1.27,0,0,1,1,1.55c-1.21,5.06-5.59,23.29-8.09,31.05a3.55,3.55,0,0,1-3.18,2.44L216.53,241l-3.38-9.15,4.37-16.2A3.87,3.87,0,0,1,219.88,213.3Z" transform="translate(-89.29 -192.31)"/><path class="cls-5" d="M119.3,297c-.21,1.8-.34,3.69-.41,5.68,0,0-11.81,2.74-16.67-1.24,0,0-12.21.07-12.43-.58l-.5-3.41s25.28.41,29.46-.43A1.47,1.47,0,0,1,119.3,297Z" transform="translate(-89.29 -192.31)"/><path class="cls-5" d="M101.38,294.28s-8.13,3.41-11.77,2.8c1.09-1.32,4.38-5.65,1.54-6,0,0,3.46-18.66,11.3-19.85C102.45,271.24,107.7,294.06,101.38,294.28Z" transform="translate(-89.29 -192.31)"/><path class="cls-7" d="M101.38,294.28c-1.5-5,1.07-23,1.07-23S107.7,294.06,101.38,294.28Z" transform="translate(-89.29 -192.31)"/><path class="cls-4" d="M345.3,280c-3.46-.16-5.19-7.5-5.19-7.5.69-7.23-6.6-5.91-9.37-6.66-44.75-12.11-124.36-.76-141.21-.49-1.39,0-13.22,4.54-13.21,4.79-7.52-9-19.61-11.52-27.21-11-32.55,2.16-29.37,32.54-29.37,32.54l.29.2c6.53-34.59,37.3-27.51,37.3-27.51,17.64,3.76,26,18.81,25.42,32.56.06-.52,15.33,2.51,17,2.18l81.86,2.13,44.84,1.17s7.27,1.52,11.32-8.36c.2-.45.37-.94.55-1.46a94,94,0,0,1,7.45-11.17C345.78,280.53,345.63,280,345.3,280Z" transform="translate(-89.29 -192.31)"/><path class="cls-8" d="M200.45,295s64.95-13.33,116.16-4.2Z" transform="translate(-89.29 -192.31)"/><path class="cls-2" d="M110.79,261.38s23.85,13.09,61-20.12l-34.58,5.57S122.45,256,110.79,261.38Z" transform="translate(-89.29 -192.31)"/><path class="cls-5" d="M405.15,235.11c-.31-.12-.63-.27-1-.43a42.41,42.41,0,0,1-21.61-23.3C383.12,212,401.69,231.6,405.15,235.11Z" transform="translate(-89.29 -192.31)"/><path class="cls-9" d="M351.62,201.63s4.77-3.85,5.58,1Z" transform="translate(-89.29 -192.31)"/><rect class="cls-9" x="359.02" y="191.36" width="0.49" height="10.8" transform="translate(102.58 -369.41) rotate(37.17)"/><path class="cls-5" d="M420.94,291.15c-.67,5.58-2.36,15.06-6.17,16,0,0-7.86,1.71-9.37.78,0,0,.62-26.52-21.11-33.33-12.86-4-37.86-4.18-41.55,34.39,0,0-146.93-3.54-156.86-1.93,0,0-3.86-.7-3.06-6.71,0,0,.06-1.72-.09-3.81,0,0,132.38-13,155-2.46,0,0,12.84-31.42,44.67-24.06a35.16,35.16,0,0,1,20.88,13.94s11,9.85,17.31,7.3A.79.79,0,0,1,420.94,291.15Z" transform="translate(-89.29 -192.31)"/><path class="cls-8" d="M139.48,243.5s33.32-6.65,42.17-13c0,0-21.33,12.53-10.43,11.79C232,238.17,370,235.28,370,235.6c.34,7.22-233.28,11.29-233.28,11.29S140.3,245.85,139.48,243.5Z" transform="translate(-89.29 -192.31)"/><path class="cls-7" d="M380.44,206.86s-8.94,1.41-11.22,3.14a2.26,2.26,0,0,1-2.07.37,230.58,230.58,0,0,0-37.7-7.87S357.45,202.85,380.44,206.86Z" transform="translate(-89.29 -192.31)"/><path class="cls-10" d="M137.22,246.83l-.33.32a3.41,3.41,0,0,1-.38.38c-14.35,14.09-35.36,12.63-35.36,12.63a15.76,15.76,0,0,1,6.09-11.83,22,22,0,0,1,7.1-3.72c.54-.19,1.11-.35,1.69-.5,0,0,8.06-1.27,17.9-3.53l.12,0S144.31,243.36,137.22,246.83Z" transform="translate(-89.29 -192.31)"/><path class="cls-7" d="M337.76,294.05c-4.05,9.88-11.32,8.36-11.32,8.36l-44.84-1.17-81.86-2.13a15.58,15.58,0,0,1-4.22.32l-4.45-3.64s117.39-12.5,146-2C337.28,293.91,337.53,294,337.76,294.05Z" transform="translate(-89.29 -192.31)"/><path class="cls-11" d="M355.33,272.62c-3.31,1.62-6.7,5.15-9.57,8.8a94,94,0,0,0-7.45,11.17c-.18.52-.35,1-.55,1.46-4.05,9.88-11.32,8.36-11.32,8.36l-44.84-1.17-81.86-2.13a15.58,15.58,0,0,1-4.22.32c-7.1-.57-5.81-7.79-5.81-7.79-3.22-7.68-4.26-16.51-4.31-24.49a112.89,112.89,0,0,1,2.39-23.59c10.13-1.84,55.1-3.87,97.78-5.44,43.26-1.59,84.2-2.7,84.2-2.7C374.33,260,355.33,272.62,355.33,272.62Z" transform="translate(-89.29 -192.31)"/><path class="cls-11" d="M285.31,238.5s-8.35,51.23-3.92,62.08" transform="translate(-89.29 -192.31)"/><path class="cls-12" d="M369.77,235.42a.56.56,0,0,1-.1.3c-23.37.2-53.24,1.25-83.73,2.63-34.84,1.58-70.47,3.6-98.13,5.26l0-.05s-.56-18.57,6.06-21.65c0,0,45.24-25.64,100.52-21.91,18.14,1.23,69.9,3,71.5,13.36C365.87,213.36,369.87,231.53,369.77,235.42Z" transform="translate(-89.29 -192.31)"/><path class="cls-6" d="M301,205.8c-1.45,7.44-5.83,30.08-5.79,31.6l55.06-1.25s11-14,8.62-23.68c-.28-1.18-36.38-8.54-55-9A2.9,2.9,0,0,0,301,205.8Z" transform="translate(-89.29 -192.31)"/><path class="cls-6" d="M196.55,224.51c3.5-2.87,12-6.23,16.35-7.82a.94.94,0,0,1,1.24,1.05c-.72,3.84-2.78,14.36-3.8,15,0,0-11,3-15.23.33C195.11,233.09,194.06,226.54,196.55,224.51Z" transform="translate(-89.29 -192.31)"/><path class="cls-3" d="M211.3,227.1s4.28,8.33.14,11.77c0,0-12,1.51-12.14-6.62C199.3,232.25,200.15,225,211.3,227.1Z" transform="translate(-89.29 -192.31)"/><g class="cls-13"><g class="cls-14"><rect class="cls-15" x="319.2" y="190.39" width="5.32" height="57.23" transform="translate(138.42 -351.05) rotate(41.77)"/><rect class="cls-15" x="329.05" y="195.92" width="11.88" height="57.23" transform="translate(145.44 -358.39) rotate(41.77)"/></g></g><path class="cls-6" d="M219.88,213.3c8.05-2.81,42.2-14,64.7-10.46a1.27,1.27,0,0,1,1,1.55c-1.21,5.06-5.59,23.29-8.09,31.05a3.55,3.55,0,0,1-3.18,2.44L216.53,241l-3.38-9.15,4.37-16.2A3.87,3.87,0,0,1,219.88,213.3Z" transform="translate(-89.29 -192.31)"/><g class="cls-16"><g class="cls-17"><rect class="cls-15" x="241.41" y="187.27" width="4.78" height="69.52" transform="translate(103.3 -296.04) rotate(38.74)"/><rect class="cls-15" x="252.09" y="191.18" width="18.63" height="69.52" transform="translate(109.62 -306.19) rotate(38.74)"/></g></g></svg>