<svg xmlns="http://www.w3.org/2000/svg" viewBox="0 0 54.99 53.28"><defs><style>.cls-1{fill:#3d4039;}.cls-2{fill:#d6e3dd;}.cls-3{fill:#c6c6c6;stroke:#3d4039;stroke-miterlimit:10;stroke-width:0.1px;}</style></defs><title>Ресурс 1</title><g id="Слой_2" data-name="Слой 2"><g id="Objects"><ellipse class="cls-1" cx="27.5" cy="26.64" rx="26.64" ry="27.5" transform="translate(-0.39 52.87) rotate(-87.34)"/><ellipse class="cls-2" cx="26.55" cy="27.16" rx="19.6" ry="19.85" transform="translate(-1.82 52.42) rotate(-87.34)"/><path class="cls-1" d="M40.49,27.28a13.66,13.66,0,1,1-13-14.39A13.72,13.72,0,0,1,40.49,27.28Z"/><path class="cls-2" d="M43.59,30.57l.56-5.21L33.43,24.8a4.3,4.3,0,0,0-.2-.57L41.63,18l-3.26-4.1L30.42,21a5.61,5.61,0,0,0-.54-.29L31.55,10.1l-5.21-.53L25.62,20.1a7.16,7.16,0,0,0-.8.19l-6.55-8.5-4,3.43,7,7.56a6.72,6.72,0,0,0-.81,1.46L9.92,23.32l-.17,5.23H20.33c.05.17.11.33.17.5L12.14,36l3.56,3.84,7.61-7.54a6.13,6.13,0,0,0,.89.44L22,43.18l5.15.92L28.57,33l.59-.17L29,33l6.17,8.94,4.21-3.11-6.94-8.38a6.67,6.67,0,0,0,.73-1.31Z"/><path class="cls-3" d="M25.61,23.12a1.49,1.49,0,1,1-1.42-1.56A1.5,1.5,0,0,1,25.61,23.12Z"/><path class="cls-3" d="M32,24.13a1.49,1.49,0,1,1-1.42-1.56A1.5,1.5,0,0,1,32,24.13Z"/><path class="cls-3" d="M30.84,30.43a1.49,1.49,0,1,1-1.42-1.56A1.48,1.48,0,0,1,30.84,30.43Z"/><path class="cls-3" d="M24.41,29.42A1.49,1.49,0,1,1,23,27.86,1.5,1.5,0,0,1,24.41,29.42Z"/></g></g></svg>